<?xml version="1.0" standalone="no"?>
<!DOCTYPE svg PUBLIC "-//W3C//DTD SVG 20010904//EN"
 "http://www.w3.org/TR/2001/REC-SVG-20010904/DTD/svg10.dtd">
<svg version="1.0" xmlns="http://www.w3.org/2000/svg"
 width="2750.000000pt" height="800.000000pt" viewBox="0 0 2750.000000 700.000000"
 preserveAspectRatio="xMidYMid meet">
<metadata>
Created by potrace 1.10, written by Peter Selinger 2001-2011
</metadata>
<g transform="translate(0.000000,1000.000000) scale(1.250000,-0.6000)"
fill="#8B623A" stroke="none">
<path d="M211 2971 c19 -26 25 -28 48 -20 14 6 33 16 41 24 8 7 26 15 40 18
14 3 7 4 -15 2 -22 -1 -51 -7 -65 -12 -26 -11 -50 -7 -50 8 0 5 -5 9 -10 9 -6
0 -1 -13 11 -29z"/>
<path d="M484 2973 c16 -14 40 -23 59 -23 34 0 77 23 77 41 0 6 -12 1 -26 -10
-30 -24 -55 -26 -87 -9 -21 11 -21 11 -2 19 15 5 11 7 -14 6 l-34 0 27 -24z"/>
<path d="M731 2983 c-2 -42 17 -73 44 -73 14 0 27 6 29 13 11 35 14 77 6 77
-5 0 -10 -17 -12 -37 -2 -30 -7 -38 -22 -38 -14 0 -23 12 -32 40 -8 26 -12 33
-13 18z"/>
<path d="M891 2982 c-1 -33 43 -75 72 -67 29 9 57 42 57 69 -1 17 -3 16 -14
-9 -9 -22 -14 -26 -21 -15 -5 9 -4 15 3 18 7 2 10 8 6 13 -6 11 -25 12 -21 2
1 -5 -2 -8 -8 -8 -5 0 -9 2 -8 5 1 3 -10 6 -25 7 -15 0 -19 -1 -9 -4 15 -4 16
-7 5 -20 -11 -14 -10 -15 12 -8 22 7 23 6 11 -9 -15 -18 -1 -22 16 -5 8 8 13
8 18 0 11 -18 -26 -25 -54 -10 -14 8 -28 25 -32 39 -7 24 -7 24 -8 2z"/>
<path d="M1121 2985 c8 -8 34 -17 57 -20 37 -5 43 -3 40 11 -2 10 -10 19 -18
21 -13 4 -13 3 0 -6 13 -9 13 -11 -2 -11 -9 0 -20 5 -23 10 -3 6 -12 10 -18
10 -7 0 -6 -4 3 -10 13 -8 13 -10 -2 -10 -9 0 -20 5 -23 10 -3 6 -11 10 -18
10 -7 0 -6 -5 4 -15z"/>
<path d="M1707 2975 c22 -29 52 -32 84 -6 14 10 36 21 49 24 14 3 7 4 -15 2
-22 -1 -51 -7 -65 -12 -26 -11 -50 -7 -50 8 0 5 -5 9 -10 9 -6 0 -3 -11 7 -25z"/>
<path d="M1984 2973 c16 -14 40 -23 59 -23 34 0 77 23 77 41 0 6 -12 1 -26
-10 -30 -24 -55 -26 -87 -9 -21 11 -21 11 -2 19 15 5 11 7 -14 6 l-34 0 27
-24z"/>
<path d="M2231 2983 c-2 -42 17 -73 44 -73 14 0 27 6 29 13 11 35 14 77 6 77
-5 0 -10 -17 -12 -37 -2 -30 -7 -38 -22 -38 -14 0 -23 12 -32 40 -8 26 -12 33
-13 18z"/>
<path d="M2391 2987 c-1 -25 16 -55 39 -67 23 -12 74 9 84 35 12 32 5 50 -8
20 -9 -22 -14 -26 -21 -15 -5 9 -4 15 3 18 7 2 10 8 6 13 -6 11 -25 12 -21 2
1 -5 -2 -8 -8 -8 -5 0 -9 2 -8 5 1 3 -10 6 -25 7 -15 0 -19 -1 -9 -4 15 -4 16
-7 5 -20 -11 -14 -10 -15 12 -8 22 7 23 6 11 -9 -15 -18 -1 -22 16 -5 8 8 13
8 18 0 11 -18 -26 -25 -54 -10 -14 8 -28 25 -32 39 -5 17 -7 19 -8 7z"/>
<path d="M2621 2985 c8 -8 34 -17 57 -20 37 -5 43 -3 40 11 -2 10 -10 19 -18
21 -13 4 -13 3 0 -6 13 -9 13 -11 -2 -11 -9 0 -20 5 -23 10 -3 6 -12 10 -18
10 -7 0 -6 -4 3 -10 13 -8 13 -10 -2 -10 -9 0 -20 5 -23 10 -3 6 -11 10 -18
10 -7 0 -6 -5 4 -15z"/>
<path d="M1321 2981 c-14 -4 -26 -11 -28 -17 -5 -16 70 -38 98 -29 36 12 70
36 63 46 -6 10 -97 10 -133 0z m99 -11 c-14 -4 -45 -8 -70 -8 -40 0 -42 1 -15
8 17 4 48 8 70 8 34 0 36 -1 15 -8z"/>
<path d="M2821 2981 c-14 -4 -26 -11 -28 -17 -5 -16 70 -38 98 -29 36 12 70
36 63 46 -6 10 -97 10 -133 0z m99 -11 c-14 -4 -45 -8 -70 -8 -37 0 -40 1 -20
8 14 4 45 8 70 8 37 0 40 -1 20 -8z"/>
<path d="M77 2974 c-3 -6 3 -21 15 -34 17 -18 18 -24 7 -31 -7 -4 -11 -10 -9
-13 3 -2 13 1 22 8 16 12 16 14 -1 32 -10 11 -20 26 -23 34 -3 9 -7 10 -11 4z"/>
<path d="M1577 2974 c-3 -6 3 -21 15 -34 17 -18 18 -24 7 -31 -7 -4 -11 -10
-9 -13 3 -2 13 1 22 8 16 12 16 14 -1 32 -10 11 -20 26 -23 34 -3 9 -7 10 -11
4z"/>
<path d="M332 2938 c-7 -7 -12 -31 -12 -54 0 -24 -4 -46 -10 -49 -5 -3 -10
-37 -10 -75 0 -67 1 -70 27 -76 43 -11 58 6 61 73 2 44 -1 63 -13 73 -10 8
-15 29 -15 61 0 51 -9 66 -28 47z m34 -115 c31 -32 6 -71 -37 -58 -20 7 -27
35 -9 35 6 0 10 5 10 11 0 5 -6 7 -12 3 -7 -4 -5 2 5 13 9 11 18 30 18 44 2
20 3 20 6 -5 3 -16 11 -35 19 -43z m12 -93 c-2 -20 -9 -26 -35 -28 -30 -3 -33
-1 -33 25 0 25 3 28 35 28 32 0 36 -2 33 -25z"/>
<path d="M1832 2938 c-7 -7 -12 -31 -12 -54 0 -24 -4 -46 -10 -49 -5 -3 -10
-37 -10 -75 0 -67 1 -70 27 -76 43 -11 58 6 61 73 2 44 -1 63 -13 73 -10 8
-15 29 -15 61 0 51 -9 66 -28 47z m34 -115 c31 -32 1 -73 -42 -56 -16 6 -19
33 -4 33 6 0 10 5 10 11 0 5 -6 7 -12 3 -7 -4 -5 2 5 13 9 11 18 30 18 44 2
20 3 20 6 -5 3 -16 11 -35 19 -43z m12 -93 c-2 -20 -9 -26 -35 -28 -30 -3 -33
-1 -33 25 0 25 3 28 35 28 32 0 36 -2 33 -25z"/>
<path d="M1200 2915 c-14 -8 -51 -14 -84 -15 -54 0 -57 -1 -45 -17 10 -11 10
-14 2 -9 -16 9 -17 -6 -2 -21 9 -9 24 -6 60 13 27 13 62 24 78 24 24 0 29 4
28 20 -2 24 -4 24 -37 5z"/>
<path d="M2700 2915 c-14 -8 -51 -14 -84 -15 -54 0 -57 -1 -45 -17 10 -11 10
-14 2 -9 -16 9 -17 -6 -1 -22 9 -9 3 -12 -29 -12 l-41 0 16 -50 c15 -48 17
-50 54 -50 21 0 41 -1 46 -2 4 -1 16 18 28 42 20 43 21 43 33 22 9 -17 21 -22
50 -22 36 0 72 23 58 37 -4 3 -49 8 -102 11 -52 2 -95 8 -95 11 0 13 90 51
120 51 23 0 28 4 27 20 -2 24 -4 24 -37 5z m-52 -100 c1 -1 -5 -16 -15 -34
-14 -25 -25 -31 -51 -31 -25 0 -35 5 -41 23 -8 21 -5 22 48 28 l56 6 -62 1
c-38 1 -63 6 -63 13 0 8 19 9 63 4 34 -4 63 -8 65 -10z m122 -16 c0 -11 -7
-11 -49 -3 -45 9 -38 20 9 16 22 -2 40 -8 40 -13z"/>
<path d="M563 2889 c3 -12 -1 -32 -9 -45 -22 -33 -10 -81 26 -99 46 -24 100 7
100 55 0 16 6 30 14 33 21 8 25 -1 16 -34 -9 -30 3 -41 14 -13 13 35 6 56 -24
67 -18 7 -33 21 -37 35 -4 18 -10 21 -27 16 -11 -4 -22 -11 -24 -15 -2 -5 -10
-2 -19 6 -21 22 -36 18 -30 -6z m77 -34 c34 -18 39 -48 14 -83 -16 -24 -44
-28 -75 -12 -24 13 -26 66 -2 92 20 22 26 22 63 3z"/>
<path d="M2063 2889 c3 -12 -1 -32 -9 -45 -22 -33 -10 -81 26 -99 46 -24 100
7 100 55 0 16 6 30 14 33 21 8 25 -1 16 -34 -9 -30 3 -41 14 -13 13 33 6 55
-21 67 -32 14 -54 38 -46 50 3 5 -5 6 -18 2 -13 -4 -25 -12 -27 -16 -2 -5 -10
-2 -19 6 -21 22 -36 18 -30 -6z m77 -34 c34 -18 39 -48 14 -83 -16 -24 -44
-28 -75 -12 -24 13 -26 66 -2 92 20 22 26 22 63 3z"/>
<path d="M68 2865 c-27 -14 -48 -28 -48 -30 0 -3 16 -37 35 -75 29 -58 39 -70
60 -70 28 0 115 40 115 52 0 7 -56 125 -64 135 0 1 -12 4 -26 7 -16 4 -42 -3
-72 -19z m72 10 c0 -8 -82 -47 -87 -41 -3 3 14 15 38 26 49 22 49 22 49 15z
m20 -20 c0 -8 -82 -47 -88 -41 -6 7 -6 7 38 28 37 18 50 21 50 13z m34 -63
l25 -49 -45 -21 -44 -22 -24 48 -24 47 41 22 c23 12 43 22 44 23 2 0 14 -22
27 -48z m-110 -29 c36 -76 25 -80 -13 -4 -17 34 -27 61 -22 61 5 0 21 -25 35
-57z"/>
<path d="M148 2800 c13 -6 22 -16 20 -22 -6 -18 -39 -23 -35 -6 2 7 2 10 0 5
-3 -4 -9 -5 -14 -1 -14 8 -11 -3 7 -20 12 -12 20 -13 35 -5 29 15 21 53 -11
56 l-25 3 23 -10z"/>
<path d="M1393 2882 c-6 -4 -14 -23 -18 -43 -6 -32 -2 -43 37 -97 23 -34 47
-61 52 -61 4 -1 6 35 4 79 -3 74 -5 82 -32 105 -16 14 -30 25 -30 25 -1 0 -6
-4 -13 -8z m57 -122 c0 -16 -5 -30 -11 -30 -6 0 -9 9 -6 19 3 14 1 18 -9 14
-8 -3 -14 -1 -14 5 0 10 15 19 33 21 4 1 7 -12 7 -29z"/>
<path d="M1568 2865 c-27 -14 -48 -28 -48 -30 0 -3 16 -37 35 -75 29 -58 39
-70 60 -70 28 0 115 40 115 52 0 7 -56 125 -64 135 0 1 -12 4 -26 7 -16 4 -42
-3 -72 -19z m72 10 c0 -8 -82 -47 -87 -41 -3 3 14 15 38 26 49 22 49 22 49 15z
m20 -20 c0 -8 -82 -47 -88 -41 -6 7 -6 7 38 28 37 18 50 21 50 13z m34 -63
l25 -49 -45 -21 -44 -22 -24 48 -24 47 41 22 c23 12 43 22 44 23 2 0 14 -22
27 -48z m-110 -29 c36 -76 25 -80 -13 -4 -17 34 -27 61 -22 61 5 0 21 -25 35
-57z"/>
<path d="M1648 2800 c13 -6 22 -16 20 -22 -6 -18 -39 -23 -35 -6 2 7 2 10 0 5
-3 -4 -9 -5 -14 -1 -14 8 -11 -3 7 -20 12 -12 20 -13 35 -5 29 15 21 53 -11
56 l-25 3 23 -10z"/>
<path d="M2893 2882 c-6 -4 -14 -23 -18 -43 -6 -32 -2 -43 37 -97 23 -34 47
-61 52 -61 4 -1 6 35 4 79 -3 74 -5 82 -32 105 -16 14 -30 25 -30 25 -1 0 -6
-4 -13 -8z m57 -122 c0 -16 -5 -30 -11 -30 -6 0 -9 9 -6 19 3 14 1 18 -9 14
-8 -3 -14 -1 -14 5 0 10 15 19 33 21 4 1 7 -12 7 -29z"/>
<path d="M407 2874 c-11 -11 -8 -52 5 -74 10 -15 10 -22 0 -32 -20 -20 -14
-38 12 -38 31 0 44 20 22 32 -20 11 -21 32 0 48 22 19 14 64 -11 68 -12 2 -24
0 -28 -4z"/>
<path d="M1907 2874 c-11 -11 -8 -52 5 -74 10 -15 10 -22 0 -32 -20 -20 -14
-38 12 -38 31 0 44 20 22 32 -20 11 -21 32 0 48 22 19 14 64 -11 68 -12 2 -24
0 -28 -4z"/>
<path d="M851 2846 c-1 -12 -6 -16 -17 -12 -19 7 -47 -12 -38 -25 3 -5 14 -9
26 -9 19 0 19 -1 -6 -34 -30 -39 -32 -49 -12 -65 29 -24 68 16 41 43 -19 18
-19 30 -2 45 11 8 18 6 31 -8 15 -16 15 -22 4 -40 -11 -17 -10 -23 3 -36 19
-20 49 -10 49 16 0 11 -14 33 -30 49 l-31 30 25 0 c14 0 27 4 31 9 8 13 -30
32 -48 25 -10 -3 -17 2 -20 13 -4 17 -5 17 -6 -1z"/>
<path d="M2351 2847 c0 -10 -7 -17 -13 -14 -18 6 -50 -12 -43 -24 4 -5 16 -9
28 -9 13 0 17 -3 11 -8 -6 -4 -13 -14 -17 -22 -4 -8 -12 -23 -19 -32 -10 -14
-10 -21 3 -33 17 -17 44 -12 53 10 3 8 -1 21 -9 29 -19 18 -19 30 -2 45 11 8
18 6 31 -8 15 -16 15 -22 4 -40 -11 -17 -10 -23 4 -37 14 -14 20 -15 32 -4 23
19 20 37 -14 70 l-31 30 25 0 c14 0 27 4 31 9 8 13 -30 32 -48 25 -10 -3 -17
2 -20 13 -5 17 -5 17 -6 0z"/>
<path d="M1018 2791 c15 -47 18 -51 49 -52 18 -1 38 -2 45 -3 6 -1 21 19 34
43 21 42 22 43 33 22 19 -34 111 -26 111 10 0 8 -56 15 -197 24 l-92 6 17 -50z
m130 23 c2 -1 -4 -16 -14 -33 -15 -25 -25 -31 -51 -31 -26 0 -36 5 -42 23 -8
21 -5 22 48 28 l56 6 -62 1 c-36 1 -63 6 -63 12 0 7 21 9 63 4 34 -4 64 -8 65
-10z m122 -15 c0 -11 -7 -11 -49 -3 -45 9 -38 20 9 16 22 -2 40 -8 40 -13z"/>
<path d="M1290 2710 c0 -5 -10 -9 -22 -7 -12 1 -23 -2 -23 -8 0 -5 -4 -15 -8
-22 -4 -7 -1 -28 7 -48 14 -33 18 -35 61 -35 40 0 47 3 56 27 5 14 8 40 6 57
-3 25 -8 31 -25 29 -12 -2 -22 2 -22 7 0 6 -7 10 -15 10 -8 0 -15 -4 -15 -10z
m54 -33 c13 -9 16 -20 11 -40 -10 -37 -28 -35 -20 3 9 40 -2 38 -14 -2 l-9
-33 -2 35 -3 35 -7 -35 -6 -35 -12 35 -12 35 3 -32 c4 -41 -8 -43 -21 -4 -9
25 -7 30 11 39 30 15 60 14 81 -1z"/>
<path d="M2790 2710 c0 -5 -10 -9 -22 -7 -12 1 -23 -2 -23 -8 0 -5 -4 -15 -8
-22 -4 -7 -1 -28 7 -48 14 -33 18 -35 60 -35 25 0 48 5 52 12 4 6 8 34 10 61
2 47 1 49 -22 43 -14 -4 -24 -2 -24 4 0 5 -7 10 -15 10 -8 0 -15 -4 -15 -10z
m54 -33 c13 -9 16 -20 11 -40 -10 -37 -28 -35 -20 3 9 40 -2 38 -14 -2 l-9
-33 -2 35 -3 35 -7 -35 -6 -35 -12 35 -12 35 3 -32 c4 -41 -8 -43 -21 -4 -9
25 -7 30 11 39 30 15 60 14 81 -1z"/>
<path d="M500 2664 c-8 -3 -21 -8 -29 -10 -10 -3 -5 -11 17 -24 18 -11 32 -28
32 -37 -1 -25 -45 -73 -68 -73 -16 0 -20 10 -25 52 -5 36 -3 54 5 60 7 4 10 9
7 12 -9 10 -30 -11 -29 -30 1 -63 8 -97 21 -105 21 -13 49 -11 55 5 3 8 16 13
31 11 19 -2 35 7 60 34 18 20 31 41 29 47 -2 6 11 18 30 26 19 9 34 12 34 8 0
-5 2 -15 5 -23 5 -10 -1 -13 -25 -9 -16 2 -30 0 -30 -5 0 -13 68 -13 73 1 6
15 -10 56 -21 56 -5 0 -23 -7 -41 -16 -29 -15 -33 -15 -44 0 -13 17 -63 28
-87 20z m84 -38 c15 -23 14 -26 -13 -55 -30 -32 -76 -46 -51 -16 8 9 10 27 6
46 -5 28 -4 30 11 18 14 -12 16 -12 11 1 -2 8 -16 15 -31 15 -47 1 -42 15 5
15 37 0 49 -4 62 -24z"/>
<path d="M1062 2654 c-13 -9 -21 -22 -18 -30 3 -8 -1 -14 -9 -14 -9 0 -12 6
-8 18 5 14 4 15 -8 4 -12 -11 -11 -15 4 -27 11 -8 17 -21 14 -32 -4 -16 -5
-16 -6 0 -1 10 -9 17 -22 17 -16 0 -19 -4 -14 -20 4 -11 2 -20 -4 -20 -20 0
-12 -38 14 -68 29 -35 78 -50 100 -32 16 13 21 45 6 36 -5 -3 -15 2 -22 11
-12 15 -12 16 4 10 10 -4 25 -7 33 -7 8 0 11 -6 7 -17 -4 -11 -3 -14 5 -9 7 4
12 14 12 22 0 8 7 17 15 20 27 11 16 20 -22 18 -21 0 -42 4 -46 10 -6 7 -7 4
-3 -6 7 -23 -3 -23 -34 -1 l-24 17 24 7 c14 3 33 2 42 -3 28 -14 78 -9 85 8
20 53 -78 121 -125 88z m28 -16 c0 -9 3 -8 10 2 14 23 64 -18 67 -56 1 -16 0
-23 -3 -16 -3 6 -10 12 -15 12 -6 0 -7 -5 -3 -12 5 -8 0 -9 -17 -3 -13 4 -37
7 -53 6 -24 0 -27 3 -22 22 3 12 6 30 6 40 0 19 30 24 30 5z m-27 -114 l22
-16 -25 7 c-27 8 -23 2 23 -33 l28 -21 -33 3 c-47 4 -68 15 -68 37 0 10 -4 19
-10 19 -21 0 -9 20 13 21 12 0 16 3 10 6 -7 2 -13 12 -13 21 0 13 3 12 15 -5
9 -12 26 -30 38 -39z"/>
<path d="M2000 2664 c-8 -3 -21 -8 -29 -10 -10 -3 -5 -11 17 -24 18 -11 32
-28 32 -37 -1 -25 -45 -73 -68 -73 -16 0 -20 10 -25 52 -5 36 -3 54 5 60 7 4
9 11 4 15 -11 12 -38 -29 -30 -47 4 -8 8 -30 9 -48 1 -19 8 -38 16 -43 21 -13
49 -11 55 5 3 8 16 13 31 11 28 -3 98 58 90 79 -3 7 10 19 29 28 19 9 34 12
34 8 0 -5 2 -15 5 -23 5 -10 -1 -13 -25 -9 -16 2 -30 0 -30 -5 0 -13 68 -13
73 1 6 15 -10 56 -21 56 -5 0 -23 -7 -41 -16 -29 -15 -33 -15 -44 0 -13 17
-63 28 -87 20z m84 -38 c15 -23 14 -26 -13 -55 -30 -32 -76 -46 -51 -16 8 9
10 27 6 46 -5 28 -4 30 11 18 14 -12 16 -12 11 1 -2 8 -16 15 -31 15 -47 1
-42 15 5 15 37 0 49 -4 62 -24z"/>
<path d="M2562 2654 c-13 -9 -21 -22 -18 -30 3 -8 -1 -14 -9 -14 -9 0 -12 6
-8 18 5 14 4 15 -8 4 -12 -11 -11 -15 4 -26 9 -7 17 -21 17 -30 0 -11 9 -16
28 -16 15 0 46 -3 69 -6 34 -5 44 -3 49 11 21 53 -76 123 -124 89z m28 -16 c0
-9 3 -8 10 2 14 23 64 -18 67 -56 1 -16 0 -23 -3 -16 -3 6 -10 12 -15 12 -6 0
-7 -5 -3 -12 5 -8 0 -9 -17 -3 -13 4 -36 7 -51 7 -19 -1 -28 4 -28 15 0 13 2
14 17 2 15 -13 15 -12 5 8 -16 30 -15 53 3 53 8 0 15 -6 15 -12z"/>
<path d="M230 2642 c0 -17 27 -82 35 -82 3 0 3 11 -1 25 -8 31 -1 32 25 3 23
-24 19 -38 -10 -38 -10 0 -19 -4 -19 -9 0 -5 -10 -11 -22 -13 -30 -4 -37 -38
-9 -45 12 -3 21 -8 21 -12 0 -4 14 -18 31 -30 34 -25 53 -18 55 22 1 12 4 39
9 60 7 34 5 39 -13 44 -12 3 -24 14 -27 24 -4 10 -17 22 -31 25 -13 3 -29 14
-34 23 -6 10 -10 11 -10 3z m91 -134 c5 1 9 -5 9 -13 0 -8 -7 -15 -15 -15 -8
0 -15 6 -15 14 0 7 -10 16 -22 20 -19 5 -21 8 -8 16 11 7 19 5 28 -8 7 -9 18
-16 23 -14z"/>
<path d="M794 2633 c-3 -10 -10 -26 -15 -35 -15 -30 -10 -58 16 -84 19 -19 31
-23 47 -18 24 7 78 57 78 71 0 10 -57 43 -75 43 -8 0 -11 8 -8 23 4 18 3 19
-6 7 -16 -22 -14 -29 14 -42 37 -17 31 -28 -15 -28 -31 0 -40 4 -40 17 0 13 3
14 12 5 20 -20 32 -13 13 8 -15 16 -15 22 -5 35 9 11 9 15 1 15 -6 0 -14 -8
-17 -17z m86 -80 c0 -2 -5 -13 -10 -24 -17 -30 -80 -23 -80 10 0 12 10 16 45
17 25 0 45 -1 45 -3z"/>
<path d="M1730 2642 c0 -17 27 -82 35 -82 3 0 3 11 -1 25 -8 31 -1 32 25 3 23
-24 19 -38 -10 -38 -10 0 -19 -4 -19 -9 0 -5 -10 -11 -22 -13 -30 -4 -37 -38
-9 -45 12 -3 21 -8 21 -12 0 -4 14 -18 31 -30 34 -25 53 -18 55 22 1 12 4 39
9 60 7 34 5 39 -13 44 -12 3 -24 14 -27 24 -4 10 -17 22 -31 25 -13 3 -29 14
-34 23 -6 10 -10 11 -10 3z m91 -134 c5 1 9 -5 9 -13 0 -8 -7 -15 -15 -15 -8
0 -15 7 -15 15 0 8 -9 15 -20 15 -22 0 -27 16 -7 23 6 3 18 -3 25 -12 7 -9 18
-15 23 -13z"/>
<path d="M2294 2633 c-3 -10 -10 -26 -15 -35 -15 -30 -10 -58 16 -84 19 -19
31 -23 47 -18 24 7 78 57 78 71 0 10 -57 43 -73 43 -7 0 -4 -5 6 -11 29 -17
19 -29 -23 -29 -31 0 -40 4 -40 17 0 13 3 14 12 5 20 -20 32 -13 13 8 -15 16
-15 22 -5 35 9 11 9 15 1 15 -6 0 -14 -8 -17 -17z m86 -80 c0 -2 -5 -13 -10
-24 -12 -21 -50 -25 -68 -7 -22 22 -12 33 33 34 25 0 45 -1 45 -3z"/>
<path d="M13 2629 c9 -5 17 -20 17 -32 0 -16 -3 -18 -9 -8 -6 9 -11 10 -15 2
-4 -6 -2 -11 5 -11 10 0 10 -3 1 -12 -16 -16 -15 -29 2 -22 8 3 17 0 21 -6 4
-7 -2 -14 -14 -17 l-22 -6 21 -14 c14 -10 34 -13 55 -10 18 3 37 1 43 -5 7 -7
16 -2 27 16 17 26 17 28 -4 47 -11 11 -21 23 -21 27 0 10 -95 62 -111 62 -9
-1 -8 -4 4 -11z m80 -66 c-7 -2 -9 -11 -6 -19 3 -7 9 -11 14 -8 5 3 9 1 9 -5
0 -6 7 -8 15 -5 8 4 15 2 15 -3 0 -21 -14 -21 -51 3 -21 13 -43 24 -49 24 -5
0 -10 7 -10 15 0 20 17 19 29 -2 10 -16 11 -16 17 5 5 18 9 20 18 11 8 -8 8
-13 -1 -16z"/>
<path d="M1464 2615 c-37 -37 -28 -63 31 -98 36 -21 58 -28 81 -24 17 3 36 1
42 -5 7 -7 16 -2 27 16 17 26 17 28 -4 47 -11 11 -21 23 -21 27 0 10 -95 62
-114 62 -9 0 -28 -11 -42 -25z m64 -16 c2 -17 0 -20 -6 -10 -7 9 -12 10 -16 2
-4 -6 -1 -11 6 -11 8 0 6 -6 -5 -17 -16 -16 -19 -16 -27 -3 -7 11 -10 11 -10
2 0 -7 -4 -10 -10 -7 -16 10 -12 25 6 25 10 0 14 6 11 15 -4 8 -2 17 3 20 4 3
11 -1 13 -7 3 -8 6 -5 6 5 1 27 25 15 29 -14z m65 -36 c-7 -2 -9 -11 -6 -19 3
-7 9 -11 14 -8 5 3 9 1 9 -5 0 -6 7 -8 15 -5 8 4 15 2 15 -3 0 -20 -13 -21
-45 -2 -30 18 -32 22 -21 44 8 17 14 21 21 13 7 -7 6 -12 -2 -15z"/>
<path d="M2965 2615 c-31 -30 -32 -59 -3 -79 12 -9 25 -16 29 -16 11 0 6 26
-8 38 -10 10 -13 10 -13 0 0 -9 -3 -9 -11 -1 -14 14 -2 36 13 27 7 -5 9 -1 5
9 -3 9 -2 19 3 22 4 3 11 -1 13 -7 3 -7 6 -3 6 10 1 28 -4 28 -34 -3z"/>
<path d="M478 2612 c11 -7 9 -11 -9 -15 -19 -5 -20 -8 -9 -22 14 -17 27 -10
32 19 2 10 -4 21 -12 23 -12 4 -12 3 -2 -5z"/>
<path d="M1978 2612 c11 -7 9 -11 -9 -15 -19 -5 -20 -8 -9 -22 14 -17 27 -10
32 19 2 10 -4 21 -12 23 -12 4 -12 3 -2 -5z"/>
<path d="M2495 2570 c4 -11 2 -20 -4 -20 -21 0 -10 -47 17 -72 47 -45 112 -49
112 -7 0 11 -4 18 -9 15 -5 -3 -15 2 -22 11 -12 15 -12 16 4 10 10 -4 25 -7
33 -7 8 0 11 -6 7 -17 -4 -11 -3 -14 5 -9 7 4 12 16 12 27 0 10 7 19 15 19 8
0 15 4 15 8 0 4 -17 7 -37 6 -21 0 -42 4 -46 10 -6 7 -7 4 -3 -6 3 -10 2 -18
-3 -18 -16 0 -61 41 -61 56 0 8 -9 14 -21 14 -16 0 -19 -4 -14 -20z m65 -46
l25 -15 -25 7 c-27 7 -23 1 24 -35 l29 -22 -34 3 c-43 2 -80 25 -72 44 3 8 0
14 -6 14 -6 0 -11 5 -11 10 0 15 41 11 70 -6z"/>
<path d="M1335 2538 c-8 -21 0 -48 14 -48 16 0 20 28 6 47 -13 17 -14 17 -20
1z"/>
<path d="M2835 2538 c-8 -21 0 -48 14 -48 16 0 20 28 6 47 -13 17 -14 17 -20
1z"/>
<path d="M690 2499 c0 -5 -4 -7 -10 -4 -6 4 -7 -11 -3 -41 l6 -47 -30 6 c-79
16 -84 15 -33 -2 33 -11 59 -15 66 -10 6 5 14 6 17 2 4 -3 7 -1 7 5 0 5 -6 13
-12 15 -10 4 -9 8 2 16 8 6 10 11 4 11 -7 0 -10 13 -8 30 2 17 1 30 -1 30 -3
0 -5 -5 -5 -11z"/>
<path d="M1393 2503 c-7 -3 -13 -17 -13 -31 0 -24 1 -25 16 -10 18 18 16 47
-3 41z"/>
<path d="M2183 2503 c-9 -3 -10 -19 -6 -50 6 -45 5 -46 -18 -41 -79 18 -92 18
-40 -2 36 -13 58 -17 66 -10 7 5 15 7 18 3 4 -3 7 -1 7 5 0 5 -6 13 -12 15
-10 4 -9 8 2 16 8 6 10 11 4 11 -7 0 -10 13 -8 30 2 17 3 30 1 29 -1 0 -7 -3
-14 -6z"/>
<path d="M2893 2503 c-7 -3 -13 -17 -13 -31 0 -24 1 -25 16 -10 18 18 16 47
-3 41z"/>
<path d="M1312 2463 c2 -10 13 -19 26 -21 17 -3 22 -10 22 -34 0 -30 -1 -30
-18 -15 -23 21 -32 21 -32 1 0 -9 9 -18 20 -21 24 -6 24 -12 5 -37 -19 -26
-19 -42 0 -26 8 7 20 30 27 51 6 22 13 37 16 34 9 -8 42 16 42 30 0 21 -27 19
-39 -2 -8 -15 -10 -10 -11 22 0 26 -3 35 -9 26 -6 -9 -11 -10 -15 -2 -11 18
-38 13 -34 -6z"/>
<path d="M2812 2463 c2 -10 13 -19 26 -21 17 -3 22 -10 22 -34 0 -30 -1 -30
-18 -15 -23 21 -32 21 -32 1 0 -9 9 -18 20 -21 24 -6 24 -12 5 -37 -8 -11 -15
-25 -15 -30 1 -19 39 38 46 67 3 16 8 26 11 23 9 -9 43 14 43 29 0 18 -21 20
-38 3 -9 -9 -12 -4 -12 23 0 23 -3 30 -9 20 -6 -9 -11 -10 -15 -2 -11 18 -38
13 -34 -6z"/>
<path d="M564 2455 c-4 -8 -12 -15 -19 -15 -8 0 -11 -13 -10 -37 2 -35 6 -38
51 -54 86 -28 94 -31 94 -22 0 5 -29 17 -65 27 -36 10 -64 21 -61 23 2 2 29
-3 61 -12 31 -9 59 -15 61 -12 3 2 -25 13 -61 22 -36 10 -65 21 -65 25 0 5 28
-1 61 -11 34 -11 64 -17 67 -15 2 3 -22 12 -54 22 -78 22 -81 25 -50 41 15 8
24 18 21 23 -9 15 -25 12 -31 -5z"/>
<path d="M2064 2455 c-4 -8 -11 -15 -18 -15 -6 0 -11 -15 -10 -37 1 -35 4 -38
50 -53 86 -29 94 -32 94 -23 0 5 -29 17 -65 27 -36 10 -64 21 -61 23 2 2 29
-3 61 -12 31 -9 59 -15 61 -12 3 2 -25 13 -61 22 -36 10 -65 21 -65 25 0 5 28
-1 61 -11 34 -11 64 -17 67 -15 2 3 -22 12 -54 22 -78 22 -81 25 -50 41 15 8
24 18 21 23 -9 15 -25 12 -31 -5z"/>
<path d="M808 2425 c-18 -10 -29 -26 -33 -49 -7 -33 7 -76 24 -76 4 0 18 -8
29 -19 22 -19 66 -18 78 1 4 6 -1 8 -13 4 -17 -6 -21 -1 -26 30 -4 24 -1 44 8
58 9 13 12 26 8 29 -4 4 -15 -10 -24 -30 -18 -38 -22 -36 -32 12 -3 12 -5 8
-6 -12 -1 -23 5 -35 18 -43 11 -5 19 -19 18 -30 -1 -20 -17 -29 -17 -10 0 6
-7 10 -15 10 -8 0 -22 11 -30 24 -21 31 -10 74 21 88 13 6 24 15 24 20 0 10 1
10 -32 -7z"/>
<path d="M850 2430 c0 -5 11 -10 25 -10 45 0 60 -65 23 -102 -13 -13 -16 -19
-6 -16 9 4 21 1 27 -5 10 -9 17 -6 33 13 12 15 15 26 9 28 -6 2 -11 19 -11 38
0 19 -3 34 -7 34 -5 0 -8 -20 -8 -44 0 -25 3 -42 7 -40 5 3 8 1 8 -5 0 -15
-20 -24 -21 -9 -1 7 -1 30 0 50 2 26 -4 43 -18 57 -22 22 -61 29 -61 11z"/>
<path d="M2350 2430 c0 -5 11 -10 25 -10 46 0 57 -66 17 -106 -15 -15 -15 -17
-1 -12 9 4 22 1 28 -5 10 -9 17 -6 33 13 12 15 15 26 9 28 -6 2 -11 19 -11 38
0 19 -3 34 -7 34 -5 0 -8 -20 -8 -44 0 -25 3 -42 7 -40 5 3 8 1 8 -5 0 -5 -4
-13 -10 -16 -5 -3 -10 -1 -10 5 0 6 -5 8 -11 4 -8 -5 -8 -1 0 14 17 32 13 70
-9 92 -21 21 -60 27 -60 10z"/>
<path d="M1204 2408 c-19 -23 -29 -26 -110 -32 -50 -4 -63 -11 -75 -43 -11
-31 3 -61 37 -73 34 -13 65 4 94 51 14 21 28 39 32 39 5 0 8 6 8 14 0 8 5 18
12 22 7 4 8 3 4 -5 -6 -9 0 -10 21 -5 35 9 33 6 26 32 -7 28 -24 28 -49 0z
m-46 -65 c-14 -16 -31 -38 -37 -50 -8 -16 -21 -23 -39 -23 -34 0 -52 16 -52
46 0 31 18 42 75 47 28 2 56 4 64 5 9 1 5 -8 -11 -25z"/>
<path d="M2297 2417 c-10 -6 -20 -28 -23 -48 -5 -29 -2 -41 14 -55 42 -40 63
-51 87 -46 40 7 39 21 0 15 -23 -4 -35 -2 -35 6 0 6 -7 11 -15 11 -8 0 -22 11
-30 24 -21 32 -10 72 24 91 16 9 20 14 10 15 -8 0 -23 -6 -32 -13z"/>
<path d="M2704 2408 c-19 -23 -29 -26 -110 -32 -50 -4 -63 -11 -75 -43 -11
-31 3 -61 37 -73 34 -13 65 4 94 51 14 21 28 39 32 39 5 0 8 6 8 14 0 8 5 18
12 22 7 4 8 3 4 -5 -6 -9 0 -10 21 -5 35 9 33 6 26 32 -7 28 -24 28 -49 0z
m-53 -75 c-18 -21 -36 -44 -42 -50 -13 -16 -51 -17 -67 -1 -16 16 -15 53 1 66
7 6 35 12 62 15 28 2 56 4 64 5 7 1 -1 -15 -18 -35z"/>
<path d="M2360 2374 c-14 -35 -24 -35 -33 1 -4 15 -5 14 -6 -7 -1 -18 6 -31
20 -38 12 -7 18 -18 15 -26 -3 -8 0 -14 6 -14 6 0 8 11 4 31 -4 19 0 38 10 54
8 13 11 26 6 29 -5 3 -15 -10 -22 -30z"/>
<path d="M33 2391 c48 -8 48 -24 0 -32 -34 -6 -35 -6 -8 -8 45 -2 56 -13 58
-62 l2 -44 -42 -3 c-52 -4 -58 -22 -8 -22 34 0 75 27 75 50 0 6 -9 29 -19 50
-18 38 -18 39 -1 30 11 -6 22 -15 25 -20 8 -13 25 -13 25 0 0 6 -7 10 -15 10
-8 0 -21 14 -30 30 -14 27 -20 30 -58 29 l-42 -2 38 -6z"/>
<path d="M1476 2388 c-6 -20 -17 -100 -17 -123 0 -30 31 -46 81 -43 38 3 47 7
58 30 11 24 10 33 -7 67 -18 39 -18 40 -1 31 11 -6 22 -15 25 -20 8 -13 25
-13 25 0 0 6 -7 10 -15 10 -8 0 -21 14 -30 30 -14 27 -20 30 -66 30 -31 0 -51
-5 -53 -12z m97 -13 c-1 -5 -22 -12 -46 -15 -44 -6 -46 -4 -38 28 2 9 86 -4
84 -13z m-5 -34 c7 -4 14 -28 15 -52 l2 -44 -55 0 c-53 0 -55 1 -58 28 -3 26
11 37 23 17 10 -17 65 -12 72 7 4 9 1 19 -5 21 -7 2 -10 8 -6 13 10 17 -49 9
-62 -8 -12 -16 -13 -16 -14 -1 0 9 6 19 13 21 19 8 61 7 75 -2z m-15 -36 c-3
-13 -53 -20 -53 -7 0 15 13 23 35 20 11 -2 19 -7 18 -13z"/>
<path d="M2974 2385 c-3 -8 -4 -20 -1 -27 2 -7 -2 -28 -9 -46 -15 -37 -6 -75
20 -85 9 -4 16 -2 16 2 0 5 -7 11 -15 15 -8 3 -15 17 -15 32 0 19 4 25 15 20
9 -3 15 0 15 10 0 8 -4 12 -10 9 -5 -3 -10 0 -10 9 0 8 6 16 13 19 9 3 9 7 0
19 -10 11 -10 17 -1 26 9 9 9 12 0 12 -7 0 -15 -7 -18 -15z"/>
<path d="M384 2376 c-3 -8 0 -25 7 -38 7 -13 12 -36 11 -53 -3 -40 36 -133 59
-140 26 -9 57 3 69 25 13 24 -29 123 -60 142 -12 7 -28 28 -35 46 -14 33 -41
43 -51 18z m41 -36 c-3 -5 -2 -10 3 -10 13 0 24 -29 16 -42 -9 -14 -24 4 -30
35 -2 16 0 27 6 27 6 0 8 -4 5 -10z m62 -63 c10 -22 9 -23 -18 -19 -20 3 -31
-1 -35 -13 -5 -13 -9 -14 -15 -3 -15 23 -10 36 11 31 12 -3 22 1 26 11 9 22
19 20 31 -7z m0 -33 c28 -8 35 -38 12 -52 -43 -27 -81 -2 -59 39 12 21 15 22
47 13z m33 -64 c0 -17 -39 -32 -58 -21 -14 9 -13 10 10 11 15 0 30 5 33 10 8
13 15 13 15 0z"/>
<path d="M1884 2376 c-3 -8 0 -25 7 -38 7 -13 12 -36 11 -53 -3 -40 36 -133
59 -140 26 -9 57 3 69 25 13 24 -29 123 -60 142 -12 7 -28 28 -35 46 -14 33
-41 43 -51 18z m41 -36 c-3 -5 -2 -10 3 -10 13 0 24 -29 16 -42 -9 -14 -24 4
-30 35 -2 16 0 27 6 27 6 0 8 -4 5 -10z m62 -63 c9 -20 8 -22 -21 -22 -23 0
-31 -5 -34 -20 -2 -18 -2 -18 8 -2 6 9 18 17 27 17 14 0 14 -2 -3 -15 -10 -8
-14 -15 -7 -15 6 0 15 5 18 10 10 16 32 11 37 -8 6 -21 -20 -42 -51 -42 -13 0
-24 13 -35 40 -21 52 -20 59 4 53 12 -3 22 1 26 11 9 22 19 20 31 -7z m33 -97
c0 -17 -39 -32 -58 -21 -14 9 -13 10 10 11 15 0 30 5 33 10 8 13 15 13 15 0z"/>
<path d="M226 2348 c4 -30 2 -37 -10 -32 -11 4 -15 -7 -18 -53 -4 -49 -1 -61
16 -75 12 -10 26 -18 31 -17 6 0 0 8 -12 18 -17 14 -23 30 -23 60 0 48 11 57
38 33 18 -15 19 -24 12 -72 -4 -30 -7 -56 -5 -58 1 -1 16 1 33 4 31 6 32 9 31
53 -1 60 -9 76 -38 76 -26 0 -33 10 -50 65 l-11 35 6 -37z m76 -123 c2 -32 -1
-46 -11 -50 -21 -8 -23 -1 -16 49 9 59 22 59 27 1z"/>
<path d="M1725 2343 c5 -27 4 -32 -8 -27 -12 4 -16 -6 -19 -53 -4 -49 -1 -61
16 -75 12 -10 26 -18 31 -17 6 0 0 8 -12 18 -17 14 -23 30 -23 60 0 48 11 57
38 33 18 -15 19 -24 12 -72 -4 -30 -6 -57 -4 -59 1 -1 15 1 31 6 32 11 38 28
29 88 -6 36 -10 42 -27 38 -25 -7 -49 13 -49 41 0 11 -5 28 -11 36 -8 11 -9 7
-4 -17z m77 -118 c2 -32 -1 -46 -11 -50 -21 -8 -23 -1 -16 49 9 59 22 59 27 1z"/>
<path d="M271 2328 c-1 -29 2 -36 14 -32 8 4 15 13 15 21 0 8 -4 12 -9 8 -5
-3 -12 5 -14 17 -3 15 -5 9 -6 -14z"/>
<path d="M1771 2327 c-1 -27 3 -37 12 -35 6 3 14 13 15 23 2 10 0 15 -6 11 -6
-3 -13 4 -15 16 -3 14 -5 8 -6 -15z"/>
<path d="M3 2327 c0 -7 10 -12 21 -12 12 0 21 -4 21 -10 0 -5 -10 -10 -22 -10
-13 1 -23 -3 -23 -7 0 -16 61 -8 67 9 4 9 1 19 -5 21 -7 2 -10 8 -6 13 3 5 -8
9 -24 9 -17 0 -29 -5 -29 -13z"/>
<path d="M590 2265 c0 -8 14 -21 30 -30 35 -18 37 -28 9 -46 -18 -13 -19 -18
-9 -41 26 -56 123 -67 171 -19 16 16 29 35 29 41 0 15 -60 39 -111 44 -32 3
-47 10 -66 35 -26 33 -53 41 -53 16z m130 -89 c0 -16 2 -18 9 -6 6 8 7 18 5
22 -3 4 2 8 12 8 12 0 15 -6 11 -22 -5 -20 -5 -21 7 -6 8 11 17 14 26 8 8 -5
11 -12 8 -16 -11 -11 -94 -17 -134 -10 -34 7 -36 9 -21 24 16 15 18 15 30 -2
14 -19 37 -15 37 7 0 7 -4 6 -10 -3 -11 -18 -25 -7 -17 14 9 22 37 8 37 -18z
m58 -43 c-16 -20 -75 -27 -108 -13 -50 21 -42 25 40 25 61 0 76 -3 68 -12z"/>
<path d="M2090 2266 c0 -8 17 -24 37 -36 l38 -22 -28 -15 c-19 -9 -27 -20 -23
-30 3 -8 6 -19 6 -24 0 -16 58 -39 98 -39 44 0 86 27 95 61 4 16 -1 23 -28 35
-19 8 -53 16 -76 18 -32 3 -47 10 -66 35 -25 32 -53 41 -53 17z m130 -90 c0
-16 2 -18 9 -6 6 8 7 18 5 22 -3 4 2 8 12 8 12 0 15 -6 11 -22 -5 -20 -5 -21
7 -6 8 11 17 14 26 8 8 -5 11 -12 8 -16 -11 -11 -94 -17 -134 -10 -34 7 -36 9
-21 24 16 15 18 15 30 -2 8 -11 19 -16 25 -12 15 9 16 26 1 26 -5 0 -7 -4 -4
-10 3 -5 1 -10 -4 -10 -12 0 -15 23 -5 33 12 11 34 -6 34 -27z m58 -43 c-16
-20 -75 -27 -108 -13 -50 21 -42 25 40 25 61 0 76 -3 68 -12z"/>
<path d="M1265 2254 c-70 -15 -106 -29 -125 -49 -33 -35 -7 -49 83 -43 78 5
157 37 157 63 0 26 -57 40 -115 29z m-27 -36 c-4 -31 20 -34 33 -4 14 31 29
34 29 6 0 -11 5 -20 11 -20 6 0 13 9 16 20 6 23 33 28 33 6 0 -33 -197 -75
-215 -46 -4 7 -2 16 6 21 9 5 17 3 22 -7 7 -12 12 -13 23 -3 8 6 14 17 14 24
0 11 10 20 28 24 2 1 2 -9 0 -21z"/>
<path d="M2743 2250 c-47 -10 -94 -32 -111 -53 -37 -44 123 -50 206 -8 88 45
27 85 -95 61z m-6 -31 c-3 -32 21 -35 33 -5 11 31 30 34 30 6 0 -11 5 -20 11
-20 6 0 13 9 16 20 6 21 28 27 38 10 4 -6 -15 -20 -41 -32 -58 -25 -168 -36
-179 -18 -4 7 -2 16 6 21 9 5 17 3 22 -7 7 -12 12 -13 23 -3 8 6 14 17 14 24
0 11 7 18 27 24 2 1 2 -9 0 -20z"/>
<path d="M959 2193 c-10 -2 -15 -11 -12 -22 3 -13 -4 -20 -29 -27 -30 -9 -33
-13 -36 -53 -5 -61 26 -94 77 -85 54 10 68 20 81 59 13 39 -1 71 -27 61 -7 -3
-13 1 -13 9 0 8 6 15 14 15 7 0 19 7 26 15 10 12 10 16 -1 19 -29 9 -65 13
-80 9z m61 -23 c0 -5 -9 -10 -20 -10 -11 0 -20 -4 -20 -8 0 -15 25 -40 45 -45
16 -4 15 -5 -5 -6 -18 -1 -31 7 -43 28 -24 41 -21 51 13 51 17 0 30 -4 30 -10z
m-98 -47 c-10 -4 -10 -9 3 -23 12 -14 15 -27 10 -50 -7 -30 -8 -31 -26 -14
-34 30 -23 92 16 92 6 0 4 -2 -3 -5z m104 -62 c-14 -25 -40 -40 -72 -41 -7 0
-9 11 -6 26 5 26 30 42 70 43 22 1 22 0 8 -28z"/>
<path d="M2459 2193 c-10 -2 -15 -11 -12 -22 3 -13 -4 -20 -29 -27 -30 -9 -33
-13 -36 -53 -5 -61 26 -94 77 -85 54 10 68 20 81 59 12 36 2 65 -21 65 -16 0
-9 -18 9 -23 10 -3 5 -5 -12 -6 -22 -1 -27 3 -22 15 3 9 6 20 6 25 0 5 6 9 14
9 7 0 19 6 25 14 10 12 8 16 -11 21 -38 11 -52 13 -69 8z m61 -23 c0 -5 -9
-10 -21 -10 -16 0 -19 -4 -14 -22 6 -22 6 -22 -9 -4 -25 30 -20 46 14 46 17 0
30 -4 30 -10z m-50 -51 c0 -3 -15 -3 -32 -1 -33 5 -33 5 -15 -16 14 -15 17
-29 12 -52 -7 -30 -8 -31 -26 -14 -11 10 -19 30 -19 49 0 26 6 34 33 46 29 13
46 9 47 -12z m55 -58 c-9 -19 -25 -32 -46 -36 -38 -9 -42 -5 -30 28 10 25 26
34 69 36 22 1 22 0 7 -28z"/>
<path d="M1480 2134 c-47 -24 -90 -31 -90 -14 0 16 -82 4 -92 -13 -5 -9 -15
-14 -23 -11 -19 8 -20 -19 -1 -35 7 -6 50 -17 94 -23 65 -10 83 -9 96 1 14 12
14 16 1 34 -21 30 -20 32 26 47 41 14 55 25 42 33 -5 3 -28 -6 -53 -19z m-114
-34 c15 -6 24 -13 21 -16 -9 -10 -88 7 -81 17 7 12 26 11 60 -1z m32 -36 c40
-4 60 -10 54 -16 -12 -12 -160 10 -169 25 -4 6 5 8 23 4 16 -3 57 -9 92 -13z"/>
<path d="M2960 2125 c-29 -16 -70 -20 -70 -5 0 16 -82 4 -92 -13 -5 -9 -15
-14 -23 -11 -19 8 -20 -19 -1 -35 7 -6 50 -17 94 -23 65 -10 83 -9 96 1 14 12
14 16 1 34 -20 29 -19 34 10 41 14 4 25 11 25 16 0 13 -10 12 -40 -5z m-72
-39 c12 -11 6 -12 -37 -3 -28 5 -48 14 -45 19 8 13 65 2 82 -16z m10 -22 c40
-4 60 -10 54 -16 -12 -12 -160 10 -169 25 -4 6 5 8 23 4 16 -3 57 -9 92 -13z"/>
<path d="M140 2110 c0 -5 6 -10 13 -10 22 0 58 -45 51 -63 -3 -10 -1 -17 5
-17 23 0 10 49 -20 74 -32 27 -49 33 -49 16z"/>
<path d="M1640 2110 c0 -5 6 -10 13 -10 22 0 58 -45 51 -63 -3 -10 -1 -17 5
-17 23 0 10 49 -20 74 -32 27 -49 33 -49 16z"/>
<path d="M100 2099 c0 -6 -18 -31 -40 -56 -37 -42 -51 -73 -32 -73 15 1 154
39 160 44 10 10 -18 7 -74 -10 -30 -8 -60 -14 -67 -11 -6 2 13 10 43 17 30 7
62 17 70 22 15 9 -5 7 -57 -8 -16 -4 -21 -2 -19 10 3 19 16 34 16 18 0 -7 7
-12 15 -12 8 0 15 5 15 10 0 6 -5 9 -11 8 -6 -2 -13 2 -16 8 -5 15 40 12 50
-3 4 -7 15 -13 23 -13 12 0 10 5 -5 21 -12 13 -26 19 -35 16 -10 -4 -16 -1
-16 8 0 8 -4 15 -10 15 -5 0 -10 -5 -10 -11z"/>
<path d="M320 2092 c0 -15 -2 -15 -11 -2 -8 12 -10 10 -5 -10 3 -14 -1 -31 -9
-41 -13 -14 -13 -24 1 -87 9 -40 20 -72 24 -72 7 0 40 105 40 130 0 7 -7 21
-16 31 -12 13 -13 22 -5 37 8 16 7 21 -4 26 -10 3 -15 -1 -15 -12z m24 -69 c4
-9 3 -19 -1 -22 -4 -3 -8 -14 -9 -23 -2 -50 -5 -59 -15 -52 -6 3 -9 15 -6 25
3 11 1 19 -4 19 -14 0 -11 40 4 41 9 0 9 2 -1 6 -6 2 -10 9 -6 14 9 15 31 10
38 -8z"/>
<path d="M1600 2098 c0 -7 -18 -31 -40 -53 -21 -22 -39 -48 -40 -57 0 -21 3
-21 50 -9 19 6 55 15 79 21 23 6 41 14 38 16 -3 3 -33 -2 -67 -11 -34 -9 -67
-14 -73 -12 -7 2 13 10 43 17 30 7 62 17 70 22 15 9 -5 7 -57 -8 -16 -4 -21
-2 -19 10 3 19 16 34 16 18 0 -7 7 -12 15 -12 8 0 15 5 15 10 0 6 -5 9 -11 8
-6 -2 -13 2 -15 7 -2 6 7 11 20 11 14 1 27 -4 30 -12 3 -8 12 -14 21 -14 13 0
12 4 -4 21 -12 13 -26 19 -35 16 -10 -4 -16 -1 -16 8 0 8 -4 15 -10 15 -5 0
-10 -6 -10 -12z"/>
<path d="M1820 2092 c0 -15 -2 -15 -11 -2 -8 12 -10 10 -5 -10 3 -14 -1 -31
-10 -41 -13 -15 -13 -24 1 -88 9 -39 20 -71 24 -71 8 0 24 47 36 108 5 24 2
38 -10 52 -13 14 -14 23 -6 38 8 16 7 21 -4 26 -10 3 -15 -1 -15 -12z m24 -69
c4 -9 3 -19 -1 -22 -4 -3 -8 -14 -9 -23 -2 -50 -5 -59 -15 -52 -6 3 -9 15 -6
25 3 11 1 19 -4 19 -14 0 -11 40 4 41 9 0 9 2 -1 6 -6 2 -10 9 -6 14 9 15 31
10 38 -8z"/>
<path d="M565 2048 c-5 -21 -13 -28 -31 -28 -13 0 -24 5 -24 10 0 20 -39 9
-70 -20 -20 -19 -29 -34 -23 -42 4 -7 8 -29 8 -48 l0 -35 58 -1 c55 -1 79 8
58 21 -15 8 25 45 49 45 25 0 25 9 3 26 -16 12 -15 13 10 14 35 0 34 12 -2 52
l-29 33 -7 -27z m33 -20 c17 -17 15 -28 -6 -28 -9 0 -23 -13 -30 -30 -17 -36
-62 -71 -99 -73 -29 -2 -40 17 -25 41 10 16 42 5 42 -14 0 -8 5 -14 11 -14 11
0 5 15 -19 42 -13 15 -11 19 19 37 19 12 44 21 57 21 13 0 22 6 22 15 0 18 12
19 28 3z"/>
<path d="M1133 2054 c-10 -25 4 -42 31 -37 21 4 26 1 32 -22 8 -32 0 -41 -48
-49 -30 -6 -39 -3 -47 13 -14 25 -14 32 0 29 6 -2 14 3 17 11 3 10 0 11 -9 5
-12 -7 -12 -5 0 9 8 11 9 17 3 17 -18 0 -34 -40 -28 -66 7 -28 43 -51 58 -36
6 6 17 8 24 5 38 -14 60 59 28 91 -14 15 -14 16 1 16 9 0 15 6 13 13 -6 17
-68 19 -75 1z"/>
<path d="M2065 2048 c-5 -21 -13 -28 -31 -28 -13 0 -24 5 -24 10 0 20 -39 9
-70 -20 -20 -19 -29 -34 -23 -42 4 -7 8 -29 8 -48 l0 -35 58 -1 c55 -1 79 8
58 21 -15 8 25 45 49 45 25 0 25 9 3 26 -16 12 -15 13 10 14 35 0 34 12 -2 52
l-29 33 -7 -27z m33 -20 c17 -17 15 -28 -5 -28 -10 0 -25 -15 -34 -32 -19 -40
-56 -68 -94 -71 -31 -2 -43 16 -27 41 10 16 42 5 42 -14 0 -8 5 -14 11 -14 11
0 5 15 -19 42 -13 15 -11 19 19 37 19 12 44 21 57 21 13 0 22 6 22 15 0 18 12
19 28 3z"/>
<path d="M2633 2054 c-3 -8 -2 -21 1 -30 5 -13 9 -14 20 -5 17 15 46 -11 46
-40 0 -22 -10 -28 -59 -31 -27 -2 -35 1 -42 20 -5 14 -5 21 0 17 5 -3 12 -1
16 5 3 5 1 10 -6 10 -8 0 -8 4 1 15 8 10 9 15 2 15 -18 0 -34 -40 -28 -66 7
-28 43 -51 58 -36 6 6 17 8 24 5 38 -14 60 59 28 91 -14 15 -14 16 1 16 9 0
15 6 13 13 -6 17 -68 19 -75 1z"/>
<path d="M692 2012 c-7 -5 -10 -16 -6 -26 4 -9 7 -47 8 -84 1 -66 1 -66 33
-75 47 -14 84 12 82 56 -2 29 -2 29 -6 5 -6 -36 -25 -50 -65 -46 -23 2 -34 9
-36 22 -3 11 0 16 7 12 6 -4 11 -2 11 3 0 6 -4 11 -10 11 -5 0 -8 24 -7 54 1
38 5 51 13 45 6 -5 31 -8 56 -8 25 1 50 -1 56 -5 16 -10 15 -49 0 -65 -11 -11
-10 -13 2 -9 10 3 15 18 15 44 0 31 -4 39 -20 42 -11 3 -24 10 -28 18 -9 15
-83 19 -105 6z m93 -12 c4 -6 -6 -10 -24 -10 -16 0 -33 5 -36 10 -4 6 6 10 24
10 16 0 33 -4 36 -10z"/>
<path d="M2192 2012 c-7 -5 -10 -16 -6 -26 4 -9 7 -47 8 -84 1 -66 1 -66 33
-75 47 -14 84 12 82 56 -2 29 -2 29 -6 5 -6 -36 -25 -50 -65 -46 -23 2 -34 9
-36 22 -3 11 0 16 7 12 6 -4 11 -2 11 3 0 6 -5 11 -10 11 -13 0 -9 102 5 112
15 12 63 9 71 -3 5 -8 -4 -10 -30 -7 -20 2 -36 0 -36 -4 0 -5 22 -8 48 -7 27
1 54 -1 60 -5 16 -10 15 -49 0 -65 -11 -11 -10 -13 2 -9 10 3 15 18 15 44 0
31 -4 39 -20 42 -11 3 -24 10 -28 18 -9 15 -83 19 -105 6z"/>
<path d="M1304 1985 c-7 -18 3 -35 23 -35 10 0 13 6 9 16 -3 9 -6 20 -6 25 0
15 -20 10 -26 -6z"/>
<path d="M2804 1985 c-7 -18 3 -35 23 -35 10 0 13 6 9 16 -3 9 -6 20 -6 25 0
15 -20 10 -26 -6z"/>
<path d="M806 1963 c-12 -12 -6 -43 9 -43 8 0 15 9 15 19 0 21 -13 34 -24 24z"/>
<path d="M1371 1953 c8 -10 9 -14 2 -10 -6 4 -14 3 -17 -2 -10 -15 13 -24 29
-11 17 14 9 40 -12 40 -13 0 -13 -2 -2 -17z"/>
<path d="M2306 1963 c-12 -12 -6 -43 9 -43 8 0 15 9 15 19 0 21 -13 34 -24 24z"/>
<path d="M2871 1953 c8 -10 9 -14 2 -10 -6 4 -14 3 -17 -2 -12 -18 17 -24 30
-6 15 21 10 35 -13 35 -13 0 -14 -2 -2 -17z"/>
<path d="M1305 1928 c-4 -10 -3 -22 1 -29 5 -9 0 -10 -19 -5 -24 6 -27 3 -25
-17 1 -13 -8 -37 -20 -55 l-23 -31 52 -16 c76 -22 79 -21 79 25 0 27 5 42 18
49 15 8 14 11 -11 20 -16 6 -34 11 -40 12 -7 0 -1 5 13 10 18 8 21 12 11 18
-7 5 -17 15 -22 22 -6 11 -9 10 -14 -3z m12 -58 c29 -10 29 -11 19 -54 l-10
-43 -37 11 c-50 15 -63 30 -19 22 28 -5 31 -4 13 4 -31 13 -29 24 2 16 31 -8
33 1 3 14 -22 8 -21 9 7 10 28 1 29 2 8 10 -13 5 -23 12 -23 15 0 7 3 7 37 -5z"/>
<path d="M2805 1928 c-4 -10 -3 -22 1 -29 5 -9 0 -10 -19 -5 -24 6 -27 3 -25
-17 1 -13 -8 -37 -20 -55 l-23 -31 52 -16 c76 -22 79 -21 79 25 0 27 5 42 18
49 15 8 14 11 -11 20 -16 6 -34 11 -40 12 -7 0 -1 5 13 10 18 8 21 12 11 18
-7 5 -17 15 -22 22 -6 11 -9 10 -14 -3z m20 -61 c18 -11 19 -16 10 -52 l-10
-41 -37 11 c-49 14 -62 29 -18 21 28 -5 31 -4 13 4 -31 13 -29 24 2 16 31 -8
33 1 3 14 -22 8 -21 9 7 10 28 1 29 2 8 10 -13 5 -23 12 -23 15 0 9 24 5 45
-8z"/>
<path d="M928 1910 c-14 -16 -15 -20 -2 -31 13 -10 18 -6 15 14 0 4 4 7 9 7
14 0 13 -13 -2 -28 -9 -9 -9 -12 0 -12 12 0 32 31 32 50 0 6 -4 8 -10 5 -5 -3
-10 -1 -10 4 0 16 -13 12 -32 -9z"/>
<path d="M2428 1910 c-14 -16 -15 -20 -2 -31 8 -6 15 -9 15 -5 1 3 2 10 3 15
0 5 4 13 9 17 4 4 7 11 7 16 0 13 -14 8 -32 -12z"/>
<path d="M47 1913 c-15 -14 -6 -19 29 -15 19 2 32 7 29 10 -9 9 -51 13 -58 5z"/>
<path d="M185 1903 c15 -40 17 -76 5 -98 -11 -21 -6 -73 15 -142 3 -9 17 -8
55 2 29 8 54 15 56 17 11 11 -33 126 -57 148 -14 14 -30 40 -34 58 -5 23 -12
32 -27 32 -15 0 -18 -4 -13 -17z m77 -93 c19 -1 -11 -16 -47 -24 -24 -6 -28
-5 -17 5 6 7 12 29 12 49 l0 35 20 -32 c11 -18 25 -33 32 -33z m27 -64 c13
-55 14 -66 1 -46 -8 13 -10 13 -10 -1 0 -17 -49 -33 -62 -21 -4 4 -10 26 -14
50 -6 38 -5 42 11 35 14 -5 16 -3 10 7 -6 10 -3 12 13 8 12 -4 22 -2 22 3 0 5
4 9 9 9 5 0 14 -20 20 -44z"/>
<path d="M1546 1913 c-13 -14 -5 -19 24 -15 17 2 30 7 30 11 0 9 -45 12 -54 4z"/>
<path d="M1688 1915 c-3 -3 0 -23 5 -45 8 -30 8 -45 -2 -64 -13 -22 -7 -73 14
-143 3 -9 17 -8 55 2 29 8 54 15 56 17 11 11 -33 126 -57 148 -14 14 -30 40
-34 58 -6 29 -23 41 -37 27z m74 -105 c19 -1 -11 -16 -47 -24 -24 -6 -28 -5
-17 5 6 7 12 29 12 49 l0 35 20 -32 c11 -18 25 -33 32 -33z m27 -64 c13 -55
14 -66 1 -46 -8 13 -10 13 -10 -1 0 -17 -49 -33 -62 -21 -4 4 -10 26 -14 50
-6 38 -5 42 11 35 14 -5 16 -3 10 7 -6 10 -3 12 13 8 12 -4 22 -2 22 3 0 5 4
9 9 9 5 0 14 -20 20 -44z"/>
<path d="M1485 1901 c-50 -21 -72 -78 -49 -127 27 -57 93 -70 143 -28 24 20
31 34 31 63 0 36 -22 81 -40 81 -9 0 -3 -70 7 -80 3 -3 3 11 0 30 -6 32 -6 34
8 16 8 -11 15 -29 15 -41 0 -23 -29 -69 -30 -47 0 7 -5 10 -11 6 -8 -5 -8 -9
1 -14 20 -13 -27 -32 -60 -25 -47 10 -53 26 -31 78 11 25 28 50 38 56 15 9 16
10 2 11 -21 0 -36 -18 -53 -66 l-15 -39 0 31 c-1 40 33 84 65 84 13 0 24 5 24
10 0 12 -17 12 -45 1z"/>
<path d="M2953 1878 c-31 -34 -36 -63 -18 -101 15 -33 65 -68 65 -47 0 6 -6
10 -14 10 -7 0 -19 6 -25 14 -10 12 -7 25 12 65 13 28 20 51 16 51 -10 0 -28
-33 -40 -69 -7 -25 -7 -24 -8 7 -1 24 7 42 28 63 16 16 24 29 17 29 -7 0 -22
-10 -33 -22z"/>
<path d="M66 1853 c3 -20 7 -39 11 -43 3 -3 3 11 0 30 -6 32 -6 34 8 16 8 -11
15 -29 15 -41 0 -23 -29 -69 -30 -47 0 7 -5 10 -11 6 -8 -5 -8 -9 1 -14 14 -9
3 -18 -38 -30 l-27 -8 27 -1 c15 -1 40 10 57 25 24 20 31 34 31 63 0 36 -22
81 -40 81 -5 0 -6 -17 -4 -37z"/>
<path d="M1099 1885 c-11 -10 13 -75 27 -75 16 0 38 -65 29 -88 -5 -14 -7 -14
-16 -2 -8 11 -12 12 -16 3 -11 -28 -33 -13 -33 23 0 24 4 33 12 28 8 -5 9 -2
5 10 -4 10 -7 23 -8 29 -1 29 -18 -32 -18 -69 -1 -43 17 -63 42 -47 7 4 19 6
28 5 9 -2 19 4 23 13 7 19 -26 112 -38 105 -5 -3 -14 12 -20 33 -6 22 -14 36
-17 32z"/>
<path d="M2599 1885 c-11 -10 13 -75 27 -75 16 0 38 -65 29 -88 -5 -14 -7 -14
-16 -2 -8 11 -12 12 -16 3 -11 -28 -33 -13 -33 23 0 24 4 33 12 28 8 -5 9 -2
5 10 -4 10 -7 23 -7 29 0 7 -4 6 -10 -3 -17 -26 -12 -107 7 -114 9 -4 21 -2
26 3 5 5 16 7 24 4 20 -8 34 16 26 47 -9 37 -34 83 -41 75 -3 -3 -11 10 -17
30 -5 20 -13 34 -16 30z"/>
<path d="M894 1869 c-7 -12 12 -29 34 -29 10 0 10 5 2 20 -12 22 -25 26 -36 9z"/>
<path d="M2394 1869 c-7 -12 12 -29 34 -29 10 0 10 5 2 20 -12 22 -25 26 -36
9z"/>
<path d="M41 1852 c0 -12 -8 -39 -16 -59 -8 -20 -13 -38 -10 -41 9 -10 36 70
32 97 -3 23 -4 23 -6 3z"/>
<path d="M1055 1854 c-11 -11 -13 -20 -6 -27 15 -15 41 0 41 23 0 24 -13 26
-35 4z"/>
<path d="M1541 1852 c0 -12 -8 -39 -16 -59 -8 -20 -13 -38 -10 -41 9 -10 36
70 32 97 -3 23 -4 23 -6 3z"/>
<path d="M2555 1854 c-11 -11 -13 -20 -6 -27 15 -15 41 0 41 23 0 24 -13 26
-35 4z"/>
<path d="M1495 1816 c-10 -25 -16 -49 -14 -54 2 -6 14 14 25 44 12 30 18 54
14 54 -5 0 -16 -20 -25 -44z"/>
<path d="M956 1829 c-14 -11 -26 -27 -26 -36 0 -14 -37 -52 -52 -53 -4 0 2 21
13 46 11 26 17 49 14 52 -4 4 -32 -53 -48 -100 -3 -9 -19 -19 -36 -23 -17 -4
-31 -11 -31 -16 0 -11 3 -11 34 1 23 8 26 7 27 -13 1 -20 2 -19 13 6 16 36 65
76 93 77 15 0 28 11 38 30 10 19 11 30 5 30 -6 0 -8 5 -5 10 11 17 -11 11 -39
-11z"/>
<path d="M2456 1829 c-14 -11 -26 -27 -26 -36 0 -14 -37 -52 -52 -53 -4 0 2
21 13 46 11 26 17 49 14 52 -4 5 -21 -31 -46 -95 -4 -12 -20 -24 -38 -28 -17
-4 -31 -11 -31 -16 0 -11 3 -11 34 1 23 8 26 7 27 -13 1 -20 2 -19 13 6 16 36
65 76 93 77 15 0 28 11 38 30 10 19 11 30 5 30 -6 0 -8 5 -5 10 11 17 -11 11
-39 -11z"/>
<path d="M548 1824 c-29 -15 -37 -34 -15 -34 17 0 57 29 57 41 0 12 -10 11
-42 -7z"/>
<path d="M2048 1824 c-28 -15 -38 -34 -18 -34 15 0 60 31 60 41 0 12 -10 11
-42 -7z"/>
<path d="M477 1804 c-3 -3 -22 -6 -41 -6 -20 0 -36 -3 -36 -8 0 -4 15 -7 33
-7 21 1 31 -4 29 -12 -1 -7 2 -10 7 -7 5 4 12 2 16 -4 4 -6 -7 -10 -27 -10
-24 0 -29 3 -18 10 10 6 5 9 -18 8 -18 -1 -35 -5 -38 -9 -3 -5 3 -6 12 -2 12
4 15 3 10 -5 -4 -7 -16 -12 -27 -12 -23 0 -24 -9 -3 -38 11 -16 25 -22 53 -22
96 0 136 28 110 77 -10 18 -19 23 -35 19 -13 -4 -26 -2 -29 4 -3 5 3 10 15 10
12 0 18 5 15 10 -7 11 -19 13 -28 4z m51 -76 c-3 -20 -11 -24 -62 -31 -48 -7
-62 -5 -74 7 -22 21 -14 26 59 35 35 5 68 9 72 10 5 0 7 -9 5 -21z"/>
<path d="M1977 1804 c-3 -3 -22 -6 -41 -6 -20 0 -36 -3 -36 -8 0 -4 15 -7 33
-7 21 1 31 -4 29 -12 -1 -7 2 -10 7 -7 5 4 12 2 16 -4 4 -6 -7 -10 -27 -10
-24 0 -29 3 -18 10 10 6 5 9 -18 8 -18 -1 -35 -5 -38 -9 -3 -5 3 -6 12 -2 12
4 15 3 10 -5 -4 -7 -16 -12 -27 -12 -23 0 -24 -9 -3 -38 27 -39 155 -27 169
17 9 30 -15 63 -42 56 -12 -3 -25 -1 -28 5 -3 5 3 10 15 10 12 0 18 5 15 10
-7 11 -19 13 -28 4z m51 -76 c-3 -20 -11 -24 -62 -31 -48 -7 -62 -5 -74 7 -22
21 -14 26 59 35 35 5 68 9 72 10 5 0 7 -9 5 -21z"/>
<path d="M627 1752 c-20 -22 -22 -63 -5 -80 16 -16 79 -15 101 2 19 14 24 56
6 56 -6 0 -8 -10 -5 -22 3 -13 3 -17 0 -10 -3 6 -16 12 -29 12 -31 0 -43 20
-22 35 9 7 14 15 10 18 -12 13 -40 7 -56 -11z m43 -62 c0 -23 -22 -27 -39 -7
-13 16 -5 27 21 27 11 0 18 -7 18 -20z"/>
<path d="M2127 1752 c-20 -22 -22 -63 -5 -80 16 -16 79 -15 101 2 19 14 24 56
6 56 -6 0 -8 -10 -5 -22 3 -13 3 -17 0 -10 -3 6 -16 12 -29 12 -31 0 -43 20
-22 35 9 7 14 15 10 18 -12 13 -40 7 -56 -11z m43 -62 c0 -23 -22 -27 -39 -7
-13 16 -5 27 21 27 11 0 18 -7 18 -20z"/>
<path d="M1347 1706 c-4 -9 -13 -13 -22 -10 -8 4 -27 -2 -43 -12 -15 -10 -32
-17 -39 -16 -19 4 -24 -14 -12 -45 l11 -28 18 23 c10 12 26 22 35 22 29 0 52
19 60 47 7 25 8 26 15 8 4 -12 3 -23 -4 -27 -7 -5 -5 -8 5 -8 22 0 31 11 20
24 -5 6 -9 16 -10 21 0 17 -28 17 -34 1z m-21 -41 c-22 -16 -46 -20 -46 -7 0
15 13 22 39 22 25 -1 25 -1 7 -15z"/>
<path d="M2846 1705 c-3 -8 -12 -12 -21 -9 -8 4 -27 -2 -43 -12 -15 -10 -34
-18 -42 -19 -8 0 -15 -6 -14 -12 1 -7 2 -20 3 -28 0 -8 8 -15 16 -15 9 0 18 7
21 15 4 8 15 15 26 15 32 0 55 18 63 47 7 25 8 26 15 8 4 -12 3 -23 -4 -27 -7
-5 -5 -8 5 -8 24 0 28 9 15 35 -12 28 -31 32 -40 10z m-20 -40 c-22 -16 -46
-20 -46 -7 0 15 13 22 39 22 25 -1 25 -1 7 -15z"/>
<path d="M63 1672 c-7 -5 -18 -35 -24 -67 -10 -53 -9 -60 7 -72 20 -14 53 -17
71 -5 7 4 15 34 19 66 6 51 4 61 -11 72 -21 16 -44 18 -62 6z m65 -31 c3 -9
-6 -11 -29 -9 -18 2 -34 9 -36 18 -4 13 -3 13 6 0 9 -13 11 -13 11 2 0 14 5
16 22 9 12 -4 24 -13 26 -20z m-62 -19 c-2 -4 12 -6 31 -4 31 4 35 2 30 -13
-4 -9 -7 -27 -7 -40 0 -25 -23 -39 -51 -30 -15 5 -19 16 -19 51 0 24 5 44 11
44 5 0 8 -4 5 -8z"/>
<path d="M72 1588 c-17 -17 -15 -38 3 -38 8 0 18 0 22 -1 13 -1 13 16 1 34
-11 14 -16 15 -26 5z"/>
<path d="M1563 1672 c-7 -5 -18 -35 -24 -67 -10 -53 -9 -60 7 -72 20 -14 53
-17 71 -5 7 4 15 34 19 66 6 51 4 61 -11 72 -21 16 -44 18 -62 6z m65 -31 c3
-9 -6 -11 -29 -9 -18 2 -34 9 -36 18 -4 13 -3 13 6 0 9 -13 11 -13 11 2 0 14
5 16 22 9 12 -4 24 -13 26 -20z m-62 -19 c-2 -4 12 -6 31 -4 31 4 35 2 30 -13
-4 -9 -7 -27 -7 -40 0 -27 -30 -41 -57 -26 -15 7 -18 18 -15 50 2 23 8 41 14
41 5 0 7 -4 4 -8z"/>
<path d="M1572 1588 c-17 -17 -15 -38 3 -38 8 0 18 0 22 -1 13 -1 13 16 1 34
-11 14 -16 15 -26 5z"/>
<path d="M950 1647 c0 -15 4 -27 9 -27 5 0 11 -6 14 -12 2 -7 2 1 -1 17 -6 41
-22 57 -22 22z"/>
<path d="M990 1660 c-2 -8 -3 -28 -4 -45 -1 -40 -31 -46 -39 -8 -4 15 -11 35
-16 43 -17 25 -26 1 -15 -39 9 -32 8 -42 -8 -61 -28 -34 -21 -97 13 -122 25
-19 28 -19 57 -4 16 8 34 28 40 44 10 31 6 79 -9 88 -5 3 -2 18 6 34 17 34 20
74 4 65 -6 -4 -8 -14 -4 -24 4 -10 3 -12 -3 -6 -6 6 -12 19 -15 30 -3 13 -6
15 -7 5z m2 -107 c35 -31 12 -123 -30 -123 -31 0 -62 29 -62 58 0 34 14 57 29
48 6 -4 9 -12 5 -17 -3 -5 -9 -7 -13 -5 -4 3 -8 -1 -8 -9 0 -8 7 -15 15 -15
12 0 12 -2 1 -16 -12 -15 -11 -16 11 -9 22 7 23 6 11 -9 -8 -9 -9 -16 -3 -16
6 0 14 5 17 10 4 6 11 8 16 5 5 -3 6 1 3 9 -3 9 -2 16 3 16 5 0 10 6 10 14 0
8 -6 12 -14 9 -15 -6 -18 13 -3 22 6 3 10 12 10 18 0 7 -7 4 -14 -5 -18 -25
-28 -22 -22 5 3 12 3 16 0 9 -3 -6 -10 -10 -15 -6 -13 8 -1 24 18 24 9 0 25
-7 35 -17z m-18 -75 c-3 -5 -14 -2 -25 8 -10 9 -16 21 -13 26 3 5 14 2 25 -8
10 -9 16 -21 13 -26z"/>
<path d="M2450 1647 c0 -15 4 -27 9 -27 5 0 11 -6 14 -12 2 -7 2 1 -1 17 -6
41 -22 57 -22 22z"/>
<path d="M2490 1660 c-1 -8 -3 -28 -4 -45 -1 -40 -31 -46 -39 -8 -4 15 -11 35
-16 43 -17 25 -26 1 -15 -39 9 -32 8 -42 -8 -61 -28 -34 -21 -97 13 -122 25
-19 28 -19 57 -4 17 9 34 26 38 38 10 31 7 77 -5 91 -6 8 -5 20 4 37 8 14 14
36 14 50 0 23 0 24 -14 7 -13 -18 -14 -17 -18 5 -2 13 -5 16 -7 8z m2 -107
c35 -31 12 -123 -30 -123 -31 0 -62 29 -62 58 0 34 14 57 29 48 6 -4 9 -12 5
-17 -3 -5 -9 -7 -13 -5 -4 3 -8 -1 -8 -9 0 -8 7 -15 15 -15 12 0 12 -2 1 -16
-12 -15 -11 -16 11 -9 22 7 23 6 11 -9 -8 -9 -9 -16 -3 -16 6 0 14 5 17 10 4
6 11 8 16 5 5 -3 6 1 3 9 -3 9 -2 16 3 16 5 0 10 6 10 14 0 8 -6 12 -14 9 -16
-6 -16 1 -2 30 9 20 9 20 -4 5 -20 -25 -29 -22 -23 5 3 12 3 16 0 9 -3 -6 -10
-10 -15 -6 -13 8 -1 24 18 24 9 0 25 -7 35 -17z m-18 -75 c-3 -5 -14 -2 -25 8
-10 9 -16 21 -13 26 3 5 14 2 25 -8 10 -9 16 -21 13 -26z"/>
<path d="M1461 1648 c-1 -11 -9 -18 -21 -18 -23 0 -50 -46 -50 -85 0 -23 4
-26 27 -23 41 5 68 57 55 106 -5 20 -10 29 -11 20z m9 -40 c0 -23 -39 -78 -55
-78 -13 0 -12 5 2 35 9 19 24 35 32 35 14 0 14 1 1 10 -13 8 -12 10 3 10 9 0
17 -6 17 -12z"/>
<path d="M2961 1648 c-1 -11 -9 -18 -22 -18 -13 0 -25 -11 -35 -35 -21 -52
-19 -75 9 -75 46 0 75 59 58 115 -5 17 -10 22 -10 13z m9 -40 c0 -23 -39 -78
-55 -78 -13 0 -12 5 2 35 9 19 24 35 32 35 14 0 14 1 1 10 -13 8 -12 10 3 10
9 0 17 -6 17 -12z"/>
<path d="M1134 1634 c3 -8 2 -12 -3 -9 -16 9 -41 -37 -41 -75 0 -47 32 -78 88
-85 54 -7 56 11 7 58 -36 35 -48 88 -24 103 8 4 7 9 -2 15 -21 13 -32 11 -25
-7z m8 -63 c2 -17 1 -28 -4 -25 -4 3 -8 15 -8 27 0 15 -3 18 -11 10 -5 -5 -7
-22 -4 -36 5 -20 12 -24 29 -21 15 2 30 -4 44 -20 l21 -25 -32 1 c-60 1 -94
57 -66 109 13 25 26 17 31 -20z"/>
<path d="M2634 1634 c3 -8 2 -12 -3 -9 -16 9 -41 -37 -41 -75 0 -47 32 -78 88
-85 54 -7 56 11 7 58 -36 35 -48 88 -24 103 8 4 7 9 -2 15 -21 13 -32 11 -25
-7z m8 -63 c2 -17 1 -28 -4 -25 -4 3 -8 15 -8 27 0 15 -3 18 -11 10 -7 -7 -9
-23 -5 -37 5 -19 11 -24 29 -20 16 2 30 -4 45 -20 l21 -25 -32 1 c-60 1 -94
57 -66 109 13 25 26 17 31 -20z"/>
<path d="M479 1601 c-20 -20 -29 -39 -29 -61 0 -43 47 -90 90 -90 44 0 69 16
86 56 12 29 12 39 0 68 -26 64 -97 76 -147 27z m124 -12 c38 -46 2 -129 -57
-129 -39 0 -79 41 -79 80 0 71 90 103 136 49z"/>
<path d="M493 1584 c-3 -8 -1 -20 6 -27 8 -8 7 -15 -5 -28 -20 -22 -9 -43 19
-35 12 3 25 -1 32 -10 17 -23 48 -7 42 23 -2 13 0 26 4 29 15 9 10 34 -7 34
-9 0 -22 8 -29 17 -11 15 -13 15 -24 -5 -15 -28 -35 -29 -26 -2 7 23 -3 27
-12 4z m85 -41 c-5 -7 -7 -21 -3 -32 8 -27 -12 -36 -25 -11 -7 13 -7 20 0 20
5 0 10 9 10 20 0 12 -7 20 -17 20 -15 0 -15 -2 -4 -9 12 -8 11 -13 -10 -30
-29 -24 -40 -26 -33 -6 4 8 13 15 21 15 9 0 13 6 10 14 -9 23 12 35 38 22 17
-8 21 -14 13 -23z"/>
<path d="M1979 1601 c-20 -20 -29 -39 -29 -61 0 -45 47 -90 93 -90 66 0 108
65 82 128 -26 60 -97 71 -146 23z m124 -12 c38 -46 2 -129 -57 -129 -39 0 -79
41 -79 80 0 71 90 103 136 49z"/>
<path d="M1993 1584 c-3 -8 -1 -20 6 -27 8 -8 7 -15 -5 -28 -20 -22 -9 -43 19
-35 12 3 25 -1 32 -10 17 -23 48 -7 42 23 -2 13 0 26 4 29 15 9 10 34 -7 34
-9 0 -22 8 -29 17 -11 15 -13 15 -24 -5 -15 -28 -35 -29 -26 -2 7 23 -3 27
-12 4z m85 -41 c-5 -7 -7 -21 -3 -32 8 -27 -12 -36 -25 -11 -7 13 -7 20 0 20
5 0 10 9 10 20 0 12 -7 20 -17 20 -15 0 -16 -2 -3 -10 8 -5 11 -12 7 -17 -12
-12 -27 19 -16 33 7 9 16 9 34 1 17 -9 21 -15 13 -24z"/>
<path d="M311 1608 c-1 -19 -21 -26 -21 -7 0 5 -5 7 -11 3 -8 -4 -7 -9 2 -15
11 -6 9 -9 -5 -15 -11 -4 -22 -1 -28 7 -8 11 -9 11 -5 -3 3 -9 1 -19 -6 -22
-9 -3 -9 -5 0 -5 6 -1 9 -10 5 -23 -5 -21 -6 -21 -13 -2 -7 18 -8 18 -8 -2 -1
-11 2 -24 6 -27 11 -11 32 13 26 30 -5 13 -3 13 15 2 25 -16 31 -11 34 24 1
15 9 29 16 32 22 8 42 -15 40 -45 -2 -21 -6 -26 -21 -22 -10 3 -30 -4 -45 -15
-41 -30 -60 -34 -77 -16 -11 10 -14 24 -10 40 4 16 2 22 -5 18 -18 -11 -11
-49 15 -78 27 -28 42 -27 84 7 8 6 28 15 44 21 20 7 31 18 34 34 4 28 -21 71
-41 71 -8 0 -17 6 -19 13 -3 7 -6 5 -6 -5z"/>
<path d="M1811 1608 c-1 -19 -21 -26 -21 -7 0 5 -5 7 -11 3 -8 -4 -7 -9 2 -15
11 -6 9 -9 -5 -15 -11 -4 -22 -1 -28 7 -8 11 -9 11 -5 -3 3 -9 1 -19 -6 -22
-9 -3 -9 -5 0 -5 6 -1 9 -10 5 -23 -5 -21 -6 -21 -13 -2 -7 18 -8 18 -8 -2 -1
-11 2 -24 6 -27 11 -12 32 14 26 31 -5 15 -3 14 15 -2 16 -14 19 -23 12 -31
-31 -38 -87 -13 -75 32 4 16 2 22 -5 18 -16 -10 -12 -44 11 -75 19 -25 25 -27
47 -19 15 6 33 16 41 22 8 7 28 16 44 22 20 7 31 18 34 34 4 28 -21 71 -41 71
-8 0 -17 6 -19 13 -3 7 -6 5 -6 -5z m43 -40 c9 -44 4 -55 -23 -51 -22 3 -23 2
-7 -5 19 -8 19 -9 -2 -14 -12 -4 -20 -2 -16 3 3 5 1 9 -5 9 -6 0 -6 11 -1 30
5 17 6 30 2 30 -12 0 23 20 35 20 7 0 15 -10 17 -22z"/>
<path d="M710 1600 c-12 -8 -12 -10 4 -10 14 0 16 -3 8 -13 -11 -13 11 -144
27 -160 5 -5 19 -7 32 -5 22 3 25 10 33 82 9 72 8 80 -10 93 -10 8 -28 12 -38
9 -11 -3 -25 -1 -31 4 -6 5 -17 5 -25 0z m90 -34 c0 -15 -35 -27 -56 -19 -8 3
-14 9 -14 15 0 5 5 6 10 3 6 -3 10 -1 10 4 0 6 11 11 25 11 15 0 25 -6 25 -14z
m0 -96 c0 -28 -5 -43 -16 -47 -21 -8 -31 5 -39 50 -7 36 -7 37 24 37 30 0 31
-2 31 -40z"/>
<path d="M2210 1599 c-12 -7 -12 -9 4 -9 14 0 16 -3 8 -13 -11 -13 11 -144 27
-160 5 -5 19 -7 32 -5 22 3 25 10 33 81 10 86 5 98 -41 101 -15 1 -33 4 -38 8
-6 4 -17 3 -25 -3z m90 -33 c0 -15 -35 -27 -56 -19 -8 3 -14 9 -14 15 0 5 5 6
10 3 6 -3 10 -1 10 4 0 6 11 11 25 11 15 0 25 -6 25 -14z m0 -96 c0 -28 -5
-43 -16 -47 -21 -8 -31 5 -39 50 -7 36 -7 37 24 37 30 0 31 -2 31 -40z"/>
<path d="M1320 1575 c-9 -11 -10 -19 -3 -26 7 -7 14 -5 23 6 9 11 10 19 3 26
-7 7 -14 5 -23 -6z"/>
<path d="M2820 1575 c-9 -11 -10 -19 -3 -26 7 -7 14 -5 23 6 9 11 10 19 3 26
-7 7 -14 5 -23 -6z"/>
<path d="M1321 1481 c-14 -4 -26 -11 -28 -17 -5 -16 70 -38 98 -29 31 10 70
41 62 49 -8 8 -101 6 -132 -3z m94 -11 c-11 -5 -40 -8 -65 -8 -41 0 -42 1 -15
8 17 4 46 8 65 8 28 1 31 -1 15 -8z"/>
<path d="M2821 1481 c-14 -4 -26 -11 -28 -17 -5 -16 70 -38 98 -29 36 12 70
36 63 46 -6 10 -97 10 -133 0z m99 -11 c-14 -4 -45 -8 -70 -8 -37 0 -40 1 -20
8 14 4 45 8 70 8 37 0 40 -1 20 -8z"/>
<path d="M77 1474 c-3 -6 3 -21 15 -34 17 -18 18 -24 7 -31 -7 -4 -11 -10 -9
-13 3 -2 13 1 22 8 16 12 16 14 -1 32 -10 11 -20 26 -23 34 -3 9 -7 10 -11 4z"/>
<path d="M1577 1474 c-3 -6 3 -21 15 -34 17 -18 18 -24 7 -31 -7 -4 -11 -10
-8 -13 3 -3 13 0 23 7 16 12 16 14 -2 33 -10 11 -21 26 -24 34 -3 9 -7 10 -11
4z"/>
<path d="M332 1438 c-7 -7 -12 -31 -12 -54 0 -24 -4 -46 -10 -49 -5 -3 -10
-37 -10 -75 0 -67 1 -70 27 -76 43 -11 58 6 61 73 2 44 -1 63 -13 73 -10 8
-15 29 -15 61 0 51 -9 66 -28 47z m34 -115 c31 -32 1 -73 -42 -56 -16 6 -19
33 -4 33 6 0 10 5 10 11 0 5 -6 7 -12 3 -7 -4 -5 2 5 13 9 11 18 30 18 44 2
20 3 20 6 -5 3 -16 11 -35 19 -43z m12 -93 c-2 -20 -9 -26 -35 -28 -30 -3 -33
-1 -33 25 0 25 3 28 35 28 32 0 36 -2 33 -25z"/>
<path d="M1832 1438 c-7 -7 -12 -31 -12 -54 0 -24 -4 -46 -10 -49 -5 -3 -10
-37 -10 -75 0 -67 1 -70 27 -76 43 -11 58 6 61 73 2 44 -1 63 -13 73 -10 8
-15 29 -15 61 0 51 -9 66 -28 47z m34 -115 c31 -32 1 -73 -42 -56 -16 6 -19
33 -4 33 6 0 10 5 10 11 0 5 -6 7 -12 3 -7 -4 -5 2 5 13 9 11 18 30 18 44 2
20 3 20 6 -5 3 -16 11 -35 19 -43z m12 -93 c-2 -20 -9 -26 -35 -28 -30 -3 -33
-1 -33 25 0 25 3 28 35 28 32 0 36 -2 33 -25z"/>
<path d="M1200 1415 c-14 -8 -51 -14 -84 -15 -54 0 -57 -1 -45 -17 10 -11 10
-14 2 -9 -16 9 -17 -6 -1 -22 9 -9 3 -12 -29 -12 l-41 0 16 -49 c15 -48 16
-49 60 -53 43 -3 44 -3 67 41 21 43 23 44 34 23 9 -17 21 -22 50 -22 36 0 72
23 58 37 -4 3 -49 8 -102 11 -52 2 -95 8 -95 11 0 13 90 51 120 51 23 0 28 4
27 20 -2 24 -4 24 -37 5z m-52 -100 c1 -1 -5 -16 -15 -34 -14 -25 -25 -31 -51
-31 -25 0 -35 5 -41 23 -8 21 -5 22 48 28 l56 6 -62 1 c-38 1 -63 6 -63 13 0
8 19 9 63 4 34 -4 63 -8 65 -10z m115 -16 c-10 -10 -73 -1 -73 10 0 4 18 5 41
3 24 -3 37 -8 32 -13z"/>
<path d="M2700 1415 c-14 -8 -51 -14 -84 -15 -54 0 -57 -1 -45 -17 10 -11 10
-14 2 -9 -16 9 -17 -6 -1 -22 9 -9 3 -12 -29 -12 l-41 0 16 -49 c15 -48 16
-49 60 -53 43 -3 44 -3 67 41 21 43 23 44 34 23 9 -17 21 -22 50 -22 36 0 72
23 58 37 -4 3 -49 8 -102 11 -52 2 -95 8 -95 11 0 13 90 51 120 51 23 0 28 4
27 20 -2 24 -4 24 -37 5z m-52 -100 c2 -2 -4 -17 -14 -34 -15 -25 -25 -31 -51
-31 -22 0 -36 6 -43 19 -15 29 -15 30 48 34 l57 3 -62 2 c-38 1 -63 6 -63 13
0 8 19 9 63 4 34 -4 64 -9 65 -10z m115 -16 c-10 -10 -73 -1 -73 10 0 4 18 5
41 3 24 -3 37 -8 32 -13z"/>
<path d="M564 1387 c2 -12 -2 -31 -10 -41 -33 -46 -1 -109 56 -109 38 0 70 31
70 68 0 13 6 25 14 28 21 8 25 -1 16 -34 -9 -30 3 -41 14 -13 13 35 6 56 -24
67 -18 7 -33 21 -37 35 -4 18 -10 21 -27 16 -11 -4 -24 -12 -28 -18 -6 -8 -8
-8 -8 0 0 7 -9 14 -21 17 -17 5 -20 2 -15 -16z m76 -32 c35 -18 40 -57 13 -87
-18 -20 -63 -24 -81 -6 -17 17 -15 68 5 90 20 22 26 22 63 3z"/>
<path d="M2063 1389 c3 -12 -1 -32 -9 -45 -22 -33 -10 -81 26 -99 46 -24 100
7 100 55 0 16 6 30 14 33 21 8 25 -1 16 -34 -9 -30 3 -41 14 -13 13 33 6 55
-21 67 -32 14 -54 38 -46 50 3 5 -5 6 -18 2 -13 -4 -25 -12 -27 -16 -2 -5 -10
-2 -19 6 -21 22 -36 18 -30 -6z m77 -34 c34 -18 39 -48 14 -83 -17 -24 -62
-30 -82 -10 -17 17 -15 68 5 90 20 22 26 22 63 3z"/>
<path d="M68 1365 c-27 -14 -48 -28 -48 -30 0 -3 16 -37 35 -75 29 -58 39 -70
60 -70 28 0 115 40 115 52 0 7 -56 125 -64 135 0 1 -12 4 -26 7 -16 4 -42 -3
-72 -19z m72 10 c0 -8 -82 -47 -87 -41 -3 3 14 15 38 26 49 22 49 22 49 15z
m20 -20 c0 -8 -82 -47 -88 -41 -6 7 -6 7 38 28 37 18 50 21 50 13z m34 -63
l25 -49 -45 -21 -44 -22 -24 48 -24 47 41 22 c23 12 43 22 44 23 2 0 14 -22
27 -48z m-110 -29 c36 -76 25 -80 -13 -4 -17 34 -27 61 -22 61 5 0 21 -25 35
-57z"/>
<path d="M148 1300 c13 -6 22 -16 20 -22 -6 -18 -39 -23 -35 -6 2 7 2 10 0 5
-3 -4 -9 -5 -14 -1 -14 8 -11 -3 7 -20 12 -12 20 -13 35 -5 29 15 21 53 -11
56 l-25 3 23 -10z"/>
<path d="M1394 1382 c-6 -4 -15 -22 -19 -40 -6 -29 -1 -42 37 -98 23 -35 47
-64 52 -64 4 0 6 36 4 80 -3 74 -5 82 -32 105 -16 14 -30 25 -30 25 -1 0 -6
-4 -12 -8z m54 -122 c-1 -16 -5 -30 -11 -30 -5 0 -7 9 -4 19 3 14 1 18 -9 14
-8 -3 -14 -1 -14 5 0 9 15 19 32 21 4 1 6 -12 6 -29z"/>
<path d="M1568 1365 c-27 -14 -48 -28 -48 -30 0 -3 16 -37 35 -75 29 -58 39
-70 60 -70 28 0 115 40 115 52 0 7 -56 125 -64 135 0 1 -12 4 -26 7 -16 4 -42
-3 -72 -19z m72 10 c0 -8 -82 -47 -87 -41 -3 3 14 15 38 26 49 22 49 22 49 15z
m20 -20 c0 -8 -82 -47 -88 -41 -6 7 -6 7 38 28 37 18 50 21 50 13z m34 -63
l25 -49 -45 -21 -44 -22 -24 48 -24 47 41 22 c23 12 43 22 44 23 2 0 14 -22
27 -48z m-111 -28 c16 -31 26 -59 23 -61 -3 -3 -19 22 -35 56 -17 34 -28 61
-23 61 4 0 20 -25 35 -56z"/>
<path d="M1648 1300 c13 -6 22 -16 20 -22 -6 -18 -39 -23 -35 -6 2 7 2 10 0 5
-3 -4 -9 -5 -14 -1 -14 8 -11 -3 7 -20 12 -12 20 -13 35 -5 29 15 21 53 -11
56 l-25 3 23 -10z"/>
<path d="M2893 1382 c-6 -4 -14 -23 -18 -43 -6 -32 -2 -43 37 -97 23 -34 47
-61 52 -61 4 -1 6 35 4 79 -3 74 -5 82 -32 105 -16 14 -30 25 -30 25 -1 0 -6
-4 -13 -8z m55 -122 c-1 -16 -5 -30 -11 -30 -5 0 -7 9 -4 19 3 14 1 18 -9 14
-8 -3 -14 -1 -14 5 0 9 15 19 32 21 4 1 6 -12 6 -29z"/>
<path d="M407 1374 c-11 -11 -8 -52 5 -74 10 -15 10 -22 0 -32 -20 -20 -14
-38 12 -38 31 0 44 20 22 32 -20 11 -21 32 0 48 22 19 14 64 -11 68 -12 2 -24
0 -28 -4z"/>
<path d="M1907 1374 c-11 -11 -8 -52 5 -74 10 -15 10 -22 0 -32 -20 -20 -14
-38 12 -38 31 0 44 20 22 32 -20 11 -21 32 0 48 22 19 14 64 -11 68 -12 2 -24
0 -28 -4z"/>
<path d="M851 1346 c-1 -12 -6 -16 -17 -12 -19 7 -47 -12 -38 -25 3 -5 15 -9
27 -9 13 0 17 -3 11 -8 -6 -4 -13 -14 -17 -22 -4 -8 -12 -23 -19 -32 -10 -14
-10 -21 3 -33 17 -17 44 -12 53 10 3 8 -1 21 -9 29 -19 18 -19 30 -2 45 11 8
18 6 31 -8 15 -16 15 -22 4 -40 -11 -17 -10 -23 4 -37 14 -14 20 -15 32 -4 23
19 20 37 -14 70 l-31 30 25 0 c14 0 27 4 31 9 8 13 -30 32 -48 25 -10 -3 -17
2 -20 13 -4 17 -5 17 -6 -1z"/>
<path d="M2351 1346 c-1 -12 -6 -16 -17 -12 -19 7 -47 -12 -38 -25 3 -5 15 -9
27 -9 13 0 17 -3 11 -8 -6 -4 -13 -14 -17 -22 -4 -8 -12 -23 -19 -32 -10 -14
-10 -21 3 -33 21 -21 49 -9 49 21 0 13 -4 24 -10 24 -15 0 -12 26 3 39 11 8
18 6 31 -8 15 -16 15 -22 4 -40 -11 -17 -10 -23 3 -36 19 -20 49 -10 49 16 0
11 -14 33 -30 49 l-31 30 25 0 c14 0 27 4 31 9 8 13 -30 32 -48 25 -10 -3 -17
2 -20 13 -4 17 -5 17 -6 -1z"/>
<path d="M1290 1210 c0 -6 -11 -8 -27 -4 -21 6 -25 4 -20 -8 3 -9 1 -20 -4
-25 -5 -5 -4 -24 3 -46 11 -36 13 -37 59 -37 26 0 51 5 55 12 4 6 8 34 10 61
2 47 1 49 -22 43 -14 -4 -24 -2 -24 4 0 5 -7 10 -15 10 -8 0 -15 -5 -15 -10z
m54 -33 c13 -9 16 -20 11 -40 -10 -37 -28 -35 -20 3 9 40 -2 38 -14 -2 l-9
-33 -2 35 -3 35 -7 -35 -6 -35 -12 35 -12 35 3 -32 c4 -41 -8 -43 -21 -4 -9
25 -7 30 11 39 30 15 60 14 81 -1z"/>
<path d="M2790 1210 c0 -5 -10 -9 -22 -7 -12 1 -23 -2 -23 -8 0 -5 -4 -15 -8
-22 -4 -7 -1 -28 7 -48 14 -33 18 -35 61 -35 40 0 47 3 55 25 5 14 8 40 6 58
-3 26 -8 32 -25 30 -11 -2 -21 2 -21 7 0 6 -7 10 -15 10 -8 0 -15 -4 -15 -10z
m54 -33 c13 -9 16 -20 11 -40 -10 -37 -28 -35 -20 3 9 40 -2 38 -14 -2 l-9
-33 -2 35 -3 35 -7 -35 -6 -35 -12 35 -12 35 3 -32 c4 -41 -8 -43 -21 -4 -9
25 -7 30 11 39 30 15 60 14 81 -1z"/>
<path d="M500 1164 c-8 -3 -22 -8 -30 -11 -11 -3 -8 -8 12 -19 15 -8 29 -23
33 -34 8 -26 -32 -79 -61 -79 -18 -1 -22 6 -27 51 -5 36 -3 54 5 60 7 4 9 11
4 15 -11 12 -38 -29 -30 -47 4 -8 8 -30 9 -48 1 -19 8 -38 16 -43 21 -13 49
-11 55 5 3 8 16 13 31 11 28 -3 98 58 90 79 -3 7 10 19 29 28 19 9 34 12 34 8
0 -5 2 -15 5 -23 5 -10 -1 -13 -25 -9 -16 2 -30 0 -30 -5 0 -13 68 -13 73 1 6
15 -10 56 -21 56 -5 0 -23 -7 -41 -16 -29 -15 -33 -15 -44 0 -13 17 -63 28
-87 20z m84 -38 c15 -23 14 -26 -13 -55 -30 -32 -76 -46 -51 -16 8 9 10 27 6
46 -5 28 -4 30 11 18 14 -12 16 -12 11 1 -2 8 -16 15 -31 15 -47 1 -42 15 5
15 37 0 49 -4 62 -24z"/>
<path d="M1069 1156 c-13 -7 -23 -20 -23 -29 1 -9 -4 -17 -12 -17 -8 0 -11 6
-7 18 5 14 4 15 -8 4 -12 -11 -11 -15 4 -27 11 -8 17 -21 14 -32 -4 -16 -5
-16 -6 0 -1 10 -9 17 -22 17 -16 0 -19 -4 -14 -20 4 -11 2 -20 -4 -20 -14 0
-14 -23 0 -54 24 -52 129 -73 129 -25 0 11 -4 18 -9 15 -5 -3 -15 2 -22 11
-12 15 -12 16 4 10 10 -4 25 -7 33 -7 8 0 11 -6 7 -17 -4 -11 -3 -14 5 -9 7 4
12 16 12 27 0 10 7 19 15 19 8 0 15 4 15 8 0 4 -17 7 -37 6 -21 0 -42 4 -46
10 -6 7 -7 4 -3 -6 7 -23 -3 -23 -34 -1 l-24 17 24 7 c14 3 33 2 43 -3 32 -16
82 -6 85 18 7 49 -73 103 -119 80z m21 -18 c0 -9 3 -8 10 2 14 23 64 -18 67
-56 1 -16 0 -23 -3 -16 -3 6 -10 12 -15 12 -6 0 -7 -5 -3 -12 5 -8 0 -9 -17
-3 -13 4 -36 7 -51 7 -19 -1 -28 4 -28 15 0 13 2 14 17 2 15 -13 15 -12 5 8
-16 30 -15 53 3 53 8 0 15 -6 15 -12z m-27 -114 l22 -16 -25 7 c-27 8 -23 2
24 -34 l29 -22 -34 3 c-43 2 -80 25 -72 44 3 8 0 14 -6 14 -22 0 -11 20 12 21
12 0 16 3 10 6 -7 2 -13 12 -13 21 0 13 3 12 15 -5 9 -12 26 -30 38 -39z"/>
<path d="M2000 1164 c-8 -3 -22 -8 -30 -11 -11 -3 -8 -8 12 -19 15 -8 29 -23
33 -34 8 -26 -32 -79 -61 -79 -18 -1 -22 6 -27 51 -5 36 -3 54 5 60 7 4 9 11
4 15 -11 12 -38 -29 -30 -47 4 -8 8 -30 9 -48 1 -19 8 -38 16 -43 21 -13 49
-11 55 5 3 8 16 13 31 11 19 -2 35 7 60 34 18 20 31 42 28 49 -2 7 3 15 13 18
9 3 25 10 35 15 10 6 17 6 17 0 0 -5 2 -16 5 -24 5 -10 -1 -13 -25 -9 -16 2
-30 0 -30 -5 0 -13 68 -13 73 1 6 15 -10 56 -21 56 -5 0 -23 -7 -41 -16 -29
-15 -33 -15 -44 0 -13 17 -63 28 -87 20z m84 -38 c15 -23 14 -26 -13 -55 -30
-32 -76 -46 -51 -16 8 9 10 27 6 46 -5 28 -4 30 11 18 14 -12 16 -12 11 1 -2
8 -16 15 -31 15 -47 1 -42 15 5 15 37 0 49 -4 62 -24z"/>
<path d="M2562 1154 c-13 -9 -21 -22 -18 -30 3 -8 -1 -14 -9 -14 -9 0 -12 6
-8 18 5 14 4 15 -8 4 -12 -11 -11 -15 4 -27 11 -8 17 -21 14 -32 -4 -15 -5
-16 -6 -1 -1 10 -9 16 -21 15 -14 -1 -18 -6 -14 -19 3 -10 1 -18 -5 -18 -21 0
-10 -47 17 -72 47 -45 112 -49 112 -7 0 11 -4 18 -9 15 -5 -3 -15 2 -22 11
-12 15 -12 16 4 10 10 -4 25 -7 33 -7 8 0 11 -6 7 -17 -4 -11 -3 -14 6 -9 7 5
10 15 7 23 -4 9 1 17 14 20 33 9 23 19 -17 17 -21 0 -42 4 -46 10 -6 7 -7 4
-3 -6 7 -23 -3 -23 -34 -1 l-24 17 24 7 c14 3 33 2 42 -3 28 -14 78 -9 85 8
20 53 -78 121 -125 88z m28 -16 c0 -9 3 -9 9 1 19 29 91 -44 73 -74 -3 -5 -7
-4 -10 3 -2 7 -8 12 -13 12 -6 0 -7 -5 -3 -12 5 -8 0 -9 -17 -3 -13 4 -36 7
-51 7 -19 -1 -28 4 -28 15 0 13 2 14 17 2 15 -13 15 -12 5 8 -16 30 -15 53 3
53 8 0 15 -6 15 -12z m-27 -114 l22 -16 -25 7 c-27 8 -23 2 24 -34 l29 -22
-34 3 c-45 3 -80 25 -72 45 4 11 2 14 -5 9 -7 -4 -12 -1 -12 8 0 10 9 16 23
17 12 0 16 3 10 6 -7 2 -13 12 -13 21 0 13 3 12 15 -5 9 -12 26 -30 38 -39z"/>
<path d="M235 1123 c4 -18 2 -34 -4 -38 -6 -3 -11 -16 -10 -28 0 -22 0 -21 10
2 8 20 12 21 25 10 13 -11 14 -9 9 14 -9 33 -2 34 24 5 23 -24 19 -38 -10 -38
-10 0 -19 -4 -19 -9 0 -5 -10 -11 -22 -13 -30 -4 -37 -38 -9 -45 12 -3 21 -8
21 -12 0 -4 14 -18 31 -30 34 -25 53 -18 55 22 1 12 4 38 8 59 7 31 5 37 -13
43 -11 3 -23 15 -26 25 -4 11 -17 23 -31 26 -13 3 -29 14 -35 23 -7 12 -8 8
-4 -16z m86 -115 c5 1 9 -5 9 -13 0 -8 -7 -15 -15 -15 -8 0 -15 7 -15 15 0 8
-9 15 -20 15 -22 0 -27 16 -7 23 6 3 18 -3 25 -12 7 -9 18 -15 23 -13z"/>
<path d="M794 1133 c-3 -10 -10 -26 -15 -35 -15 -30 -10 -58 16 -84 19 -19 31
-23 47 -18 24 7 78 57 78 71 0 12 -69 48 -76 40 -4 -4 1 -9 10 -13 29 -11 17
-24 -24 -24 -31 0 -40 4 -40 17 0 13 3 14 12 5 20 -20 32 -13 13 8 -15 16 -15
22 -5 35 9 11 9 15 1 15 -6 0 -14 -8 -17 -17z m86 -80 c0 -2 -5 -13 -10 -24
-12 -21 -50 -25 -68 -7 -22 22 -12 33 33 34 25 0 45 -1 45 -3z"/>
<path d="M1735 1123 c4 -18 2 -34 -4 -38 -6 -3 -11 -16 -10 -28 0 -22 0 -21
10 2 8 20 12 21 25 10 13 -11 14 -9 9 14 -9 33 -2 34 24 5 23 -24 19 -38 -10
-38 -10 0 -19 -4 -19 -9 0 -5 -10 -11 -22 -13 -30 -4 -37 -38 -9 -45 12 -3 21
-8 21 -12 0 -4 14 -18 31 -30 34 -25 53 -18 55 22 1 12 4 39 9 60 7 34 5 39
-13 44 -12 3 -24 14 -27 24 -4 10 -17 22 -31 25 -13 3 -29 14 -35 23 -7 12 -8
8 -4 -16z m86 -115 c5 1 9 -5 9 -13 0 -8 -7 -15 -15 -15 -8 0 -15 6 -15 14 0
7 -10 16 -22 20 -19 5 -21 8 -8 16 11 7 19 5 28 -8 7 -9 18 -16 23 -14z"/>
<path d="M2294 1133 c-3 -10 -10 -26 -15 -35 -15 -30 -10 -58 16 -84 19 -19
31 -23 47 -18 24 7 78 57 78 71 0 10 -57 43 -75 43 -8 0 -11 8 -8 23 4 18 3
19 -6 7 -16 -22 -14 -29 14 -42 37 -17 31 -28 -15 -28 -31 0 -40 4 -40 17 0
13 3 14 12 5 20 -20 32 -13 13 8 -15 16 -15 22 -5 35 9 11 9 15 1 15 -6 0 -14
-8 -17 -17z m86 -80 c0 -2 -5 -13 -10 -24 -12 -21 -50 -25 -68 -7 -22 22 -12
33 33 34 25 0 45 -1 45 -3z"/>
<path d="M13 1129 c9 -5 17 -20 17 -32 0 -16 -3 -18 -9 -8 -6 9 -11 10 -15 2
-4 -6 -2 -11 5 -11 10 0 10 -3 1 -12 -16 -16 -15 -29 2 -22 8 3 17 0 21 -6 4
-7 -2 -14 -14 -17 l-22 -6 21 -14 c14 -10 34 -13 55 -10 18 3 37 1 43 -5 7 -7
16 -2 27 16 17 26 17 28 -4 47 -11 11 -21 23 -21 27 0 10 -95 62 -111 62 -9
-1 -8 -4 4 -11z m80 -66 c-7 -2 -9 -11 -6 -19 3 -7 9 -11 14 -8 5 3 9 1 9 -5
0 -6 7 -8 15 -5 8 4 15 2 15 -3 0 -21 -14 -21 -51 3 -21 13 -43 24 -49 24 -5
0 -10 7 -10 15 0 20 17 19 29 -2 10 -16 11 -16 17 5 5 18 9 20 18 11 8 -8 8
-13 -1 -16z"/>
<path d="M1464 1115 c-37 -37 -28 -63 31 -98 36 -21 58 -28 81 -24 17 3 36 1
42 -5 7 -7 16 -1 28 17 17 26 17 28 1 40 -9 7 -17 17 -17 23 0 13 -101 72
-124 72 -9 0 -28 -11 -42 -25z m64 -16 c2 -17 0 -20 -6 -10 -7 9 -12 10 -16 2
-4 -6 -1 -11 6 -11 8 0 6 -6 -5 -17 -16 -16 -19 -16 -27 -3 -7 11 -10 11 -10
2 0 -7 -4 -10 -10 -7 -15 9 -12 25 5 25 8 0 15 5 15 11 0 5 -6 7 -12 3 -9 -5
-8 -2 1 10 11 13 16 14 22 4 7 -10 9 -8 9 5 0 27 24 15 28 -14z m65 -36 c-7
-2 -9 -11 -6 -19 3 -7 9 -11 14 -8 5 3 9 1 9 -5 0 -6 7 -8 15 -5 8 4 15 2 15
-3 0 -20 -13 -21 -45 -2 -30 18 -32 22 -21 44 8 17 14 21 21 13 7 -7 6 -12 -2
-15z"/>
<path d="M2965 1115 c-31 -30 -32 -59 -3 -79 12 -9 25 -16 29 -16 11 0 6 26
-8 38 -8 9 -13 9 -13 2 0 -6 -4 -8 -10 -5 -15 9 -12 25 5 25 8 0 15 5 15 11 0
5 -6 7 -12 3 -9 -5 -8 -2 1 10 11 13 16 14 22 4 6 -9 9 -6 9 10 0 28 -5 28
-35 -3z"/>
<path d="M478 1112 c11 -7 9 -11 -9 -15 -19 -5 -20 -8 -9 -22 14 -17 27 -10
32 19 2 10 -4 21 -12 23 -12 4 -12 3 -2 -5z"/>
<path d="M1978 1112 c11 -7 9 -11 -9 -15 -19 -5 -20 -8 -9 -22 14 -17 27 -10
32 19 2 10 -4 21 -12 23 -12 4 -12 3 -2 -5z"/>
<path d="M1334 1036 c-7 -20 2 -46 16 -46 13 0 13 47 0 55 -6 3 -13 -1 -16 -9z"/>
<path d="M2834 1036 c-7 -20 2 -46 16 -46 13 0 13 47 0 55 -6 3 -13 -1 -16 -9z"/>
<path d="M690 999 c0 -5 -4 -7 -10 -4 -6 4 -7 -11 -3 -41 6 -46 5 -47 -18 -42
-74 17 -90 16 -39 -1 33 -11 59 -15 66 -10 6 5 14 6 17 2 4 -3 7 -1 7 4 0 6
-6 14 -12 16 -10 4 -9 8 2 16 8 6 10 11 4 11 -7 0 -10 13 -8 30 2 17 1 30 -1
30 -3 0 -5 -5 -5 -11z"/>
<path d="M1393 1003 c-7 -3 -13 -17 -13 -31 0 -24 1 -25 16 -10 18 18 16 47
-3 41z"/>
<path d="M2183 1003 c-9 -3 -10 -19 -6 -50 6 -45 5 -46 -18 -41 -74 17 -90 16
-39 -1 33 -11 59 -15 66 -10 6 5 14 6 17 2 4 -3 7 -1 7 4 0 6 -6 14 -12 16
-10 4 -9 8 2 16 8 6 10 11 4 11 -7 0 -10 13 -8 30 2 17 3 30 1 29 -1 0 -7 -3
-14 -6z"/>
<path d="M2893 999 c-7 -7 -13 -22 -13 -33 0 -19 1 -19 16 -4 9 8 14 23 12 32
-2 14 -5 15 -15 5z"/>
<path d="M1312 963 c2 -10 13 -19 26 -21 17 -3 22 -10 22 -34 0 -30 -1 -30
-18 -15 -23 21 -32 21 -32 1 0 -9 9 -18 20 -21 24 -6 24 -12 5 -37 -8 -11 -15
-25 -15 -30 1 -19 39 38 46 67 3 16 8 26 11 23 9 -9 43 14 43 29 0 18 -21 20
-38 3 -9 -9 -12 -4 -12 23 0 23 -3 30 -9 20 -6 -9 -11 -10 -15 -2 -11 18 -38
13 -34 -6z"/>
<path d="M2812 963 c2 -10 13 -19 26 -21 17 -3 22 -10 22 -34 0 -30 -1 -30
-18 -15 -23 21 -32 21 -32 1 0 -9 9 -18 20 -21 24 -6 24 -12 5 -37 -8 -11 -15
-25 -15 -30 1 -19 39 38 46 67 3 16 8 26 11 23 9 -9 43 14 43 29 0 18 -21 20
-38 3 -9 -9 -12 -4 -12 23 0 23 -3 30 -9 20 -6 -9 -11 -10 -15 -2 -11 18 -38
13 -34 -6z"/>
<path d="M564 955 c-4 -8 -12 -15 -18 -15 -8 0 -12 -14 -12 -37 2 -34 4 -37
51 -53 87 -30 95 -32 95 -23 0 5 -29 17 -65 27 -36 10 -64 21 -61 23 2 2 29
-3 61 -12 31 -9 59 -15 61 -12 3 2 -25 13 -61 22 -36 10 -65 21 -65 25 0 5 28
-1 61 -11 34 -11 64 -17 67 -15 2 3 -22 12 -54 22 -78 22 -81 25 -50 41 15 8
24 18 21 23 -9 15 -25 12 -31 -5z"/>
<path d="M2064 955 c-4 -8 -12 -15 -19 -15 -8 0 -11 -13 -10 -37 2 -35 6 -38
51 -54 86 -28 94 -31 94 -22 0 5 -29 17 -65 27 -36 10 -64 21 -61 23 2 2 29
-3 61 -12 31 -9 59 -15 61 -12 3 2 -25 13 -61 22 -36 10 -65 21 -65 25 0 5 28
-1 61 -11 34 -11 64 -17 67 -15 2 3 -22 12 -54 22 -78 22 -81 25 -50 41 15 8
24 18 21 23 -9 15 -25 12 -31 -5z"/>
<path d="M850 930 c0 -5 11 -10 25 -10 46 0 60 -61 23 -100 -17 -18 -18 -22
-5 -17 9 3 19 2 22 -3 11 -18 32 -10 43 15 7 15 8 25 2 25 -6 0 -10 16 -10 35
0 19 -3 35 -7 35 -5 0 -8 -20 -8 -44 0 -25 3 -42 7 -40 5 3 8 1 8 -5 0 -5 -4
-13 -10 -16 -5 -3 -10 -1 -10 5 0 6 -5 8 -11 4 -8 -5 -8 -1 0 14 17 32 13 70
-9 92 -21 21 -60 27 -60 10z"/>
<path d="M2350 930 c0 -5 11 -10 25 -10 46 0 60 -61 23 -100 -15 -16 -17 -22
-6 -18 8 4 21 1 27 -5 10 -9 17 -6 33 13 12 15 15 26 9 28 -6 2 -11 19 -11 38
0 19 -3 34 -7 34 -5 0 -8 -20 -8 -44 0 -25 3 -42 7 -40 5 3 8 1 8 -5 0 -5 -4
-13 -10 -16 -5 -3 -10 -1 -10 5 0 6 -5 8 -11 4 -8 -5 -8 -1 0 14 17 32 13 70
-9 92 -21 21 -60 27 -60 10z"/>
<path d="M797 917 c-10 -6 -20 -28 -23 -48 -6 -38 1 -49 55 -90 22 -17 66 -15
77 3 4 6 -1 8 -13 4 -17 -6 -21 -1 -26 30 -4 24 -1 44 8 58 9 13 12 26 8 29
-4 4 -15 -10 -24 -30 -18 -38 -22 -36 -32 12 -3 12 -5 8 -6 -12 -1 -23 5 -35
18 -43 11 -5 19 -19 18 -30 -1 -20 -17 -29 -17 -10 0 6 -7 10 -15 10 -8 0 -22
11 -30 24 -21 32 -10 72 24 91 16 9 20 14 10 15 -8 0 -23 -6 -32 -13z"/>
<path d="M1204 908 c-19 -23 -29 -26 -110 -32 -50 -4 -63 -11 -75 -43 -11 -31
3 -61 37 -73 34 -13 65 4 94 51 14 21 28 39 32 39 5 0 8 6 8 14 0 8 5 18 12
22 7 4 8 3 4 -5 -6 -9 0 -10 21 -5 35 9 33 6 26 32 -7 28 -24 28 -49 0z m-53
-75 c-18 -21 -36 -44 -42 -50 -13 -16 -51 -17 -67 -1 -16 16 -15 53 1 66 7 6
35 12 62 15 28 2 56 4 64 5 7 1 -1 -15 -18 -35z"/>
<path d="M2297 917 c-10 -6 -20 -28 -23 -48 -5 -29 -2 -41 14 -55 42 -40 63
-51 87 -46 40 7 39 21 0 15 -23 -4 -35 -2 -35 6 0 6 -7 11 -15 11 -8 0 -22 11
-30 24 -21 32 -10 72 24 91 16 9 20 14 10 15 -8 0 -23 -6 -32 -13z"/>
<path d="M2704 908 c-19 -23 -29 -26 -110 -32 -50 -4 -63 -11 -75 -43 -11 -31
3 -61 37 -73 34 -13 65 4 94 51 14 21 28 39 32 39 5 0 8 6 8 14 0 8 5 18 12
22 7 4 8 3 4 -5 -6 -9 0 -10 21 -5 35 9 33 6 26 32 -7 28 -24 28 -49 0z m-53
-75 c-18 -21 -36 -44 -42 -50 -13 -16 -51 -17 -67 -1 -16 16 -15 53 1 66 7 6
35 12 62 15 28 2 56 4 64 5 7 1 -1 -15 -18 -35z"/>
<path d="M2360 874 c-15 -36 -26 -35 -33 6 -4 21 -4 20 -6 -7 -1 -23 5 -35 20
-43 12 -7 18 -18 15 -26 -3 -8 0 -14 6 -14 6 0 8 11 4 31 -4 19 0 38 10 54 8
13 11 26 6 29 -5 3 -15 -10 -22 -30z"/>
<path d="M33 891 c21 -3 38 -10 38 -16 0 -5 -17 -13 -38 -16 -34 -6 -35 -6 -8
-8 45 -2 56 -13 58 -62 l2 -44 -42 -3 c-52 -4 -58 -22 -8 -22 34 0 75 27 75
50 0 6 -9 29 -19 50 -18 38 -18 39 -1 30 11 -6 22 -15 25 -20 8 -13 25 -13 25
0 0 6 -7 10 -15 10 -8 0 -21 14 -30 30 -14 27 -20 30 -58 29 l-42 -2 38 -6z"/>
<path d="M1476 888 c-6 -20 -17 -100 -17 -123 0 -45 93 -63 131 -25 25 25 25
31 1 80 -18 38 -18 39 -1 30 11 -6 22 -15 25 -20 8 -13 25 -13 25 0 0 6 -7 10
-15 10 -8 0 -21 14 -30 30 -14 27 -20 30 -66 30 -31 0 -51 -5 -53 -12z m97
-13 c-1 -5 -22 -12 -46 -15 -44 -6 -46 -4 -38 28 2 9 86 -4 84 -13z m-5 -34
c7 -4 14 -28 15 -52 l2 -44 -55 0 c-53 0 -55 1 -58 28 -3 26 11 37 23 17 10
-17 65 -12 72 7 4 9 1 19 -5 21 -7 2 -10 8 -6 13 10 17 -49 9 -62 -8 -12 -16
-13 -16 -14 -1 0 9 6 19 13 21 19 8 61 7 75 -2z m-15 -36 c-3 -13 -53 -20 -53
-7 0 15 13 23 35 20 11 -2 19 -7 18 -13z"/>
<path d="M2975 888 c-6 -19 -16 -90 -16 -117 -1 -24 29 -57 40 -45 3 3 -2 10
-12 15 -22 13 -24 64 -2 55 9 -3 15 0 15 10 0 8 -4 12 -10 9 -5 -3 -10 0 -10
9 0 8 6 16 13 19 9 3 9 7 0 19 -10 11 -10 17 -1 26 9 9 9 12 0 12 -7 0 -14 -6
-17 -12z"/>
<path d="M384 876 c-3 -8 0 -25 7 -38 7 -13 12 -36 11 -53 -3 -40 36 -133 59
-140 26 -9 57 3 69 25 12 23 -30 124 -60 142 -12 7 -28 28 -35 46 -14 33 -41
43 -51 18z m41 -36 c-3 -5 -2 -10 3 -10 13 0 24 -29 16 -42 -9 -14 -24 4 -30
35 -2 16 0 27 6 27 6 0 8 -4 5 -10z m62 -63 c9 -20 8 -22 -21 -22 -23 0 -31
-5 -34 -20 -2 -18 -2 -18 8 -2 6 9 18 17 27 17 14 0 14 -2 -3 -15 -10 -8 -14
-15 -7 -15 6 0 15 5 18 10 10 16 32 11 37 -8 6 -21 -20 -42 -51 -42 -13 0 -24
13 -35 40 -21 52 -20 59 4 53 12 -3 22 1 26 11 9 22 19 20 31 -7z m33 -97 c0
-17 -39 -32 -58 -21 -14 9 -13 10 10 11 15 0 30 5 33 10 8 13 15 13 15 0z"/>
<path d="M1884 876 c-3 -8 0 -25 7 -38 7 -13 12 -36 11 -53 -3 -40 36 -133 59
-140 26 -9 57 3 69 25 12 23 -30 124 -60 142 -12 7 -28 28 -35 46 -14 33 -41
43 -51 18z m41 -36 c-3 -5 -2 -10 3 -10 13 0 24 -29 16 -42 -9 -14 -24 4 -30
35 -2 16 0 27 6 27 6 0 8 -4 5 -10z m62 -63 c10 -22 9 -23 -19 -19 -24 4 -30
0 -35 -19 -6 -22 -7 -22 -14 -3 -13 33 -10 42 11 37 12 -3 22 1 26 11 9 22 19
20 31 -7z m0 -33 c46 -12 25 -64 -26 -64 -23 0 -31 18 -20 48 9 24 12 25 46
16z m33 -64 c0 -17 -39 -32 -58 -21 -14 9 -13 10 10 11 15 0 30 5 33 10 8 13
15 13 15 0z"/>
<path d="M226 848 c4 -30 2 -37 -10 -32 -11 4 -15 -7 -18 -53 -4 -49 -1 -61
16 -75 12 -10 26 -18 31 -17 6 0 0 8 -12 18 -17 14 -23 30 -23 60 0 48 11 57
38 33 18 -15 19 -24 12 -72 -4 -30 -6 -57 -4 -59 1 -1 15 1 31 6 32 11 38 28
29 87 -6 37 -10 42 -33 41 -27 0 -35 10 -52 65 l-11 35 6 -37z m76 -123 c2
-32 -1 -46 -11 -50 -21 -8 -23 -1 -16 49 9 59 22 59 27 1z"/>
<path d="M1726 848 c4 -30 2 -37 -10 -32 -11 4 -15 -7 -18 -53 -4 -49 -1 -61
16 -75 12 -10 26 -18 31 -17 6 0 0 8 -12 18 -17 14 -23 30 -23 60 0 48 11 57
38 33 18 -15 19 -24 12 -72 -4 -30 -6 -57 -4 -59 1 -1 15 1 31 6 32 11 38 28
29 87 -6 37 -10 42 -33 41 -27 0 -35 10 -52 65 l-11 35 6 -37z m76 -123 c2
-32 -1 -46 -11 -50 -21 -8 -23 -1 -16 49 9 59 22 59 27 1z"/>
<path d="M271 827 c-1 -27 3 -37 12 -35 6 3 14 13 15 23 2 10 0 15 -6 11 -6
-3 -13 4 -15 16 -3 14 -5 8 -6 -15z"/>
<path d="M1771 828 c-1 -29 2 -36 14 -32 8 4 15 13 15 21 0 8 -4 12 -9 8 -5
-3 -12 5 -14 17 -3 15 -5 9 -6 -14z"/>
<path d="M3 827 c0 -7 10 -12 21 -12 12 0 21 -4 21 -10 0 -5 -10 -10 -22 -10
-13 1 -23 -3 -23 -7 0 -16 61 -8 67 9 4 9 1 19 -5 21 -7 2 -10 8 -6 13 3 5 -8
9 -24 9 -17 0 -29 -5 -29 -13z"/>
<path d="M590 766 c0 -8 17 -24 37 -36 l38 -22 -28 -14 c-31 -17 -31 -15 -16
-47 14 -31 48 -47 100 -47 31 0 47 7 70 29 16 16 29 35 29 41 0 15 -60 39
-111 44 -32 3 -47 10 -66 35 -25 32 -53 41 -53 17z m130 -90 c0 -16 2 -18 9
-6 6 8 7 18 5 22 -3 4 2 8 11 8 12 0 15 -6 10 -22 -5 -21 -5 -21 8 -6 9 11 18
14 27 8 8 -5 11 -12 8 -16 -11 -11 -94 -17 -134 -10 -34 7 -36 9 -21 24 16 15
18 15 30 -2 14 -19 37 -15 37 7 0 7 -4 6 -10 -3 -11 -18 -25 -7 -17 14 9 22
37 8 37 -18z m58 -43 c-16 -20 -75 -27 -108 -13 -50 21 -42 25 40 25 61 0 76
-3 68 -12z"/>
<path d="M2090 765 c0 -8 14 -21 30 -30 36 -19 37 -28 8 -47 -21 -14 -22 -18
-9 -41 29 -55 124 -65 172 -18 16 16 29 35 29 41 0 15 -60 39 -111 44 -32 3
-47 10 -66 35 -26 33 -53 41 -53 16z m130 -89 c0 -16 2 -18 9 -6 6 8 7 18 5
22 -3 4 2 8 11 8 12 0 15 -6 10 -22 -5 -21 -5 -21 8 -6 9 11 18 14 27 8 8 -5
11 -12 8 -16 -11 -11 -94 -17 -134 -10 -34 7 -36 9 -21 24 16 15 18 15 30 -2
14 -19 37 -15 37 7 0 7 -4 6 -10 -3 -11 -18 -25 -7 -17 14 9 22 37 8 37 -18z
m58 -43 c-16 -20 -75 -27 -108 -13 -50 21 -42 25 40 25 61 0 76 -3 68 -12z"/>
<path d="M1243 749 c-146 -28 -161 -96 -20 -87 117 8 199 63 131 88 -29 11
-52 11 -111 -1z m-5 -31 c-4 -31 20 -34 32 -4 11 31 30 34 30 6 0 -11 5 -20
11 -20 6 0 13 9 16 20 6 23 33 28 33 6 0 -33 -197 -75 -215 -46 -4 7 -2 16 6
21 9 5 17 3 22 -7 7 -12 12 -13 23 -3 8 6 14 17 14 24 0 11 10 20 28 24 2 1 2
-9 0 -21z"/>
<path d="M2748 750 c-50 -9 -116 -39 -122 -56 -10 -26 22 -37 97 -32 117 8
199 63 131 88 -28 11 -51 11 -106 0z m-11 -31 c-3 -31 21 -35 29 -5 7 31 34
35 34 6 0 -11 5 -20 11 -20 6 0 13 9 16 20 6 21 28 27 38 10 4 -6 -15 -20 -41
-32 -58 -25 -168 -36 -179 -18 -4 7 -2 16 6 21 9 5 17 3 22 -7 7 -12 12 -13
23 -3 8 6 14 17 14 24 0 11 7 18 27 24 2 1 2 -9 0 -20z"/>
<path d="M959 693 c-10 -2 -15 -11 -12 -22 3 -13 -4 -20 -29 -27 -31 -9 -33
-13 -36 -56 -3 -39 1 -49 23 -66 27 -21 66 -21 107 -1 24 13 43 76 28 94 -14
17 -30 20 -30 6 0 -5 8 -12 18 -14 10 -3 5 -5 -12 -6 -22 -1 -27 3 -22 15 3 9
6 20 6 25 0 5 6 9 14 9 7 0 19 6 25 14 10 12 8 16 -11 21 -38 11 -52 13 -69 8z
m61 -23 c0 -5 -9 -10 -21 -10 -16 0 -19 -4 -14 -22 6 -22 6 -22 -9 -4 -25 30
-20 46 14 46 17 0 30 -4 30 -10z m-40 -72 c0 -12 -28 -10 -35 2 -4 6 1 7 12 4
17 -5 17 -5 -1 10 -10 8 -15 20 -11 27 6 8 12 4 21 -12 7 -13 13 -27 14 -31z
m-58 25 c-10 -4 -10 -9 3 -23 12 -14 15 -27 10 -50 -7 -30 -8 -31 -26 -14 -34
30 -23 92 16 92 6 0 4 -2 -3 -5z m104 -62 c-14 -25 -40 -40 -72 -41 -7 0 -9
11 -6 26 5 26 30 42 70 43 22 1 22 0 8 -28z"/>
<path d="M2459 693 c-10 -2 -15 -11 -12 -22 3 -13 -4 -20 -29 -27 -31 -9 -33
-13 -36 -56 -3 -39 1 -49 23 -66 27 -21 66 -21 107 -1 24 13 43 76 28 94 -14
17 -30 20 -30 6 0 -5 8 -12 18 -14 10 -3 5 -5 -12 -6 -22 -1 -27 3 -22 15 3 9
6 20 6 25 0 5 6 9 14 9 7 0 19 7 26 15 10 12 10 16 -1 19 -29 9 -65 13 -80 9z
m61 -23 c0 -5 -9 -10 -21 -10 -16 0 -19 -4 -14 -22 6 -22 6 -22 -9 -4 -25 30
-20 46 14 46 17 0 30 -4 30 -10z m-50 -51 c0 -3 -15 -3 -32 -1 -33 5 -33 5
-15 -16 14 -15 17 -29 12 -52 -7 -30 -8 -31 -26 -14 -11 10 -19 30 -19 49 0
26 6 34 33 46 29 13 46 9 47 -12z m46 -29 c24 0 24 -1 10 -29 -14 -26 -40 -40
-73 -41 -15 0 -5 42 15 58 14 11 14 12 0 12 -9 0 -20 4 -23 10 -4 7 3 7 20 0
15 -6 37 -10 51 -10z"/>
<path d="M1480 634 c-47 -24 -90 -31 -90 -14 0 16 -82 4 -92 -14 -5 -9 -13
-14 -18 -11 -15 9 -20 -11 -7 -29 17 -23 169 -45 191 -27 14 12 14 16 1 34
-21 30 -20 32 26 47 41 14 55 25 42 33 -5 3 -28 -6 -53 -19z m-114 -34 c15 -6
24 -13 21 -16 -9 -10 -88 7 -81 17 7 12 26 11 60 -1z m32 -36 c40 -4 60 -10
54 -16 -12 -12 -160 10 -169 25 -4 6 5 8 23 4 16 -3 57 -9 92 -13z"/>
<path d="M2960 625 c-29 -17 -70 -20 -70 -5 0 6 -8 10 -17 10 -15 0 -16 -2 -3
-10 13 -8 13 -10 -2 -10 -9 0 -20 5 -23 10 -9 15 -23 12 -42 -9 -9 -11 -22
-17 -29 -14 -18 7 -18 -21 0 -36 7 -6 50 -17 94 -23 65 -10 83 -9 96 1 14 12
14 16 1 34 -20 29 -19 34 10 41 14 4 25 11 25 16 0 13 -10 12 -40 -5z m-94
-25 c15 -6 24 -13 21 -16 -9 -10 -88 7 -81 17 7 12 26 11 60 -1z m32 -36 c40
-4 60 -10 54 -16 -12 -12 -160 10 -169 25 -4 6 5 8 23 4 16 -3 57 -9 92 -13z"/>
<path d="M173 589 c29 -24 36 -36 31 -51 -4 -14 -2 -18 5 -14 20 13 11 44 -20
70 -17 14 -36 26 -42 26 -6 0 5 -14 26 -31z"/>
<path d="M1640 610 c0 -5 6 -10 13 -10 23 0 58 -45 51 -65 -5 -13 -4 -16 4
-11 21 13 13 44 -19 70 -32 27 -49 33 -49 16z"/>
<path d="M100 598 c0 -7 -18 -31 -40 -53 -35 -36 -52 -75 -32 -75 15 1 154 39
160 44 10 10 -18 7 -74 -10 -30 -8 -60 -14 -67 -11 -6 2 13 10 43 17 30 7 62
17 70 22 15 9 -5 7 -57 -8 -33 -9 -23 28 12 45 24 12 29 11 37 -3 5 -9 16 -16
24 -16 12 0 10 5 -5 21 -12 13 -26 19 -35 16 -10 -4 -16 -1 -16 8 0 8 -4 15
-10 15 -5 0 -10 -6 -10 -12z"/>
<path d="M320 592 c0 -15 -2 -15 -11 -2 -8 12 -10 10 -5 -10 3 -14 -1 -31 -10
-41 -13 -15 -13 -24 1 -88 9 -39 20 -71 24 -71 8 0 41 104 41 130 0 7 -7 21
-16 31 -12 13 -13 22 -5 37 8 16 7 21 -4 26 -10 3 -15 -1 -15 -12z m24 -69 c4
-9 3 -19 -1 -22 -4 -3 -8 -14 -9 -23 -2 -50 -5 -59 -15 -52 -6 3 -9 15 -6 25
3 11 1 19 -4 19 -14 0 -11 40 4 41 9 0 9 2 -1 6 -6 2 -10 9 -6 14 9 15 31 10
38 -8z"/>
<path d="M1600 597 c0 -7 -18 -31 -40 -52 -35 -35 -53 -75 -32 -75 15 1 154
39 160 44 10 10 -18 7 -74 -10 -30 -8 -60 -14 -67 -11 -6 2 13 10 43 17 30 7
62 17 70 22 15 9 -5 7 -57 -8 -16 -4 -21 -2 -19 10 3 19 16 34 16 18 0 -7 7
-12 15 -12 8 0 15 5 15 10 0 6 -5 9 -11 8 -6 -2 -13 2 -16 8 -5 15 40 12 50
-3 4 -7 15 -13 23 -13 12 0 10 5 -5 21 -12 13 -26 19 -35 16 -10 -4 -16 -1
-16 8 0 8 -4 15 -10 15 -5 0 -10 -6 -10 -13z"/>
<path d="M1820 592 c0 -15 -2 -15 -11 -2 -8 12 -10 10 -5 -10 3 -14 -1 -31
-10 -41 -13 -15 -13 -24 1 -88 9 -39 20 -71 24 -71 8 0 41 104 41 130 0 7 -7
21 -16 31 -12 13 -13 22 -5 37 8 16 7 21 -4 26 -10 3 -15 -1 -15 -12z m24 -69
c4 -9 3 -19 -1 -22 -4 -3 -8 -14 -9 -23 -2 -50 -5 -59 -15 -52 -6 3 -9 15 -6
25 3 11 1 19 -4 19 -14 0 -11 40 4 41 9 0 9 2 -1 6 -6 2 -10 9 -6 14 9 15 31
10 38 -8z"/>
<path d="M565 548 c-5 -21 -13 -28 -31 -28 -13 0 -24 5 -24 10 0 20 -39 9 -70
-20 -20 -19 -29 -34 -23 -42 4 -7 8 -29 8 -48 l0 -35 58 -1 c55 -1 79 8 58 21
-15 8 25 45 49 45 25 0 26 16 3 29 -15 9 -14 10 10 11 35 0 34 12 -2 52 l-29
33 -7 -27z m33 -20 c17 -17 15 -28 -5 -28 -10 0 -25 -15 -33 -32 -9 -17 -25
-37 -36 -45 -18 -12 -23 -10 -42 17 l-23 30 33 20 c18 11 43 20 56 20 13 0 22
6 22 15 0 18 12 19 28 3z m-132 -86 c22 -15 24 -41 2 -47 -26 -9 -42 7 -33 34
7 22 13 25 31 13z"/>
<path d="M1133 554 c-3 -8 -2 -21 1 -30 5 -13 9 -14 20 -5 17 15 46 -11 46
-40 0 -22 -10 -28 -59 -31 -27 -2 -35 1 -42 20 -5 14 -5 21 0 17 5 -3 12 -1
16 5 3 5 1 10 -6 10 -8 0 -8 4 1 15 8 10 9 15 2 15 -18 0 -34 -40 -28 -66 7
-28 43 -51 58 -36 6 6 17 8 24 5 39 -15 63 75 27 96 -17 10 -17 10 0 11 10 0
17 6 15 13 -6 17 -68 19 -75 1z"/>
<path d="M2065 548 c-5 -21 -13 -28 -31 -28 -13 0 -24 5 -24 10 0 20 -39 9
-70 -20 -20 -19 -29 -34 -23 -42 4 -7 8 -29 8 -48 l0 -35 58 -1 c55 -1 79 8
58 21 -16 9 21 45 46 45 28 0 29 8 6 26 -16 12 -15 13 10 14 35 0 34 12 -2 52
l-29 33 -7 -27z m33 -20 c17 -17 15 -28 -5 -28 -10 0 -25 -15 -34 -32 -19 -40
-56 -68 -94 -71 -31 -2 -43 16 -27 41 10 16 42 5 42 -14 0 -8 5 -14 11 -14 11
0 5 15 -19 42 -13 15 -11 19 19 37 19 12 44 21 57 21 13 0 22 6 22 15 0 18 12
19 28 3z"/>
<path d="M2633 554 c-3 -8 -2 -21 1 -30 5 -13 9 -14 20 -5 17 15 46 -11 46
-40 0 -22 -10 -28 -59 -31 -27 -2 -35 1 -42 20 -5 14 -5 21 0 17 5 -3 12 -1
16 5 3 5 1 10 -6 10 -8 0 -8 4 1 15 8 10 9 15 2 15 -18 0 -34 -40 -28 -66 7
-28 43 -51 58 -36 6 6 17 8 24 5 38 -14 60 59 28 91 -14 15 -14 16 1 16 9 0
15 6 13 13 -6 17 -68 19 -75 1z"/>
<path d="M692 512 c-7 -5 -10 -16 -6 -26 4 -9 7 -47 8 -84 1 -66 1 -66 33 -75
47 -14 84 12 82 56 -2 29 -2 29 -6 5 -6 -36 -25 -50 -65 -46 -23 2 -34 9 -36
22 -3 11 0 16 7 12 6 -4 11 -2 11 3 0 6 -4 11 -10 11 -5 0 -8 24 -7 54 1 38 5
51 13 45 6 -5 31 -8 56 -8 25 1 50 -1 56 -5 16 -10 15 -49 0 -65 -11 -11 -10
-13 2 -9 10 3 15 18 15 44 0 31 -4 39 -20 42 -11 3 -24 10 -28 18 -9 15 -83
19 -105 6z m93 -12 c4 -6 -6 -10 -24 -10 -16 0 -33 5 -36 10 -4 6 6 10 24 10
16 0 33 -4 36 -10z"/>
<path d="M2192 512 c-7 -5 -10 -16 -6 -26 4 -9 7 -47 8 -84 1 -66 1 -66 33
-75 47 -14 84 12 82 56 -2 29 -2 29 -6 5 -6 -36 -25 -50 -65 -46 -23 2 -34 9
-36 22 -3 11 0 16 7 12 6 -4 11 -2 11 3 0 6 -4 11 -10 11 -5 0 -8 24 -7 54 1
38 5 51 13 45 6 -5 31 -8 56 -8 25 1 50 -1 56 -5 16 -10 15 -49 0 -65 -11 -11
-10 -13 2 -9 10 3 15 18 15 44 0 31 -4 39 -20 42 -11 3 -24 10 -28 18 -9 15
-83 19 -105 6z m93 -12 c4 -6 -6 -10 -24 -10 -16 0 -33 5 -36 10 -4 6 6 10 24
10 16 0 33 -4 36 -10z"/>
<path d="M1304 485 c-7 -18 3 -35 23 -35 10 0 13 6 9 16 -3 9 -6 20 -6 25 0
15 -20 10 -26 -6z"/>
<path d="M2804 485 c-7 -18 3 -35 23 -35 10 0 13 6 9 16 -3 9 -6 20 -6 25 0
15 -20 10 -26 -6z"/>
<path d="M806 463 c-12 -12 -6 -43 9 -43 8 0 15 9 15 19 0 21 -13 34 -24 24z"/>
<path d="M1371 453 c8 -10 9 -14 2 -10 -6 4 -14 3 -17 -2 -10 -15 13 -24 29
-11 17 14 9 40 -12 40 -13 0 -13 -2 -2 -17z"/>
<path d="M2306 463 c-12 -12 -6 -43 9 -43 8 0 15 9 15 19 0 21 -13 34 -24 24z"/>
<path d="M2871 453 c8 -10 9 -14 2 -10 -6 4 -14 3 -17 -2 -10 -15 13 -24 29
-11 17 14 9 40 -12 40 -13 0 -13 -2 -2 -17z"/>
<path d="M1305 428 c-4 -10 -3 -22 1 -29 5 -9 0 -10 -20 -5 -23 6 -27 4 -24
-11 2 -10 -6 -35 -19 -55 l-23 -37 52 -16 c75 -22 78 -21 78 25 0 27 5 42 18
49 15 8 14 11 -11 20 -16 6 -34 11 -40 12 -7 0 -1 5 13 10 18 8 21 12 11 18
-7 5 -17 15 -22 22 -6 11 -9 10 -14 -3z m20 -61 c18 -11 19 -16 10 -52 l-10
-41 -37 11 c-49 14 -62 29 -18 21 28 -5 31 -4 13 4 -31 13 -29 24 2 16 31 -8
33 1 3 14 -22 8 -21 9 7 10 28 1 29 2 8 10 -13 5 -23 12 -23 15 0 9 24 5 45
-8z"/>
<path d="M2805 428 c-4 -10 -3 -22 1 -29 5 -9 0 -10 -20 -5 -23 6 -27 4 -24
-11 2 -10 -6 -34 -18 -55 l-23 -36 49 -16 c74 -24 80 -22 80 24 0 27 5 42 18
49 15 8 14 11 -11 20 -16 6 -34 11 -40 12 -7 0 -1 5 13 10 18 8 21 12 11 18
-7 5 -17 15 -22 22 -6 11 -9 10 -14 -3z m20 -61 c18 -11 19 -16 10 -52 l-10
-41 -37 11 c-49 14 -62 29 -18 21 28 -5 31 -4 13 4 -31 13 -29 24 2 16 31 -8
33 1 3 14 -22 8 -21 9 7 10 28 1 29 2 8 10 -13 5 -23 12 -23 15 0 9 24 5 45
-8z"/>
<path d="M928 410 c-14 -16 -15 -20 -2 -31 8 -6 15 -9 15 -5 1 3 2 10 3 15 0
5 4 13 9 17 4 4 7 11 7 16 0 13 -14 8 -32 -12z"/>
<path d="M2428 410 c-14 -16 -15 -20 -2 -31 8 -6 15 -9 15 -5 1 3 2 10 3 15 0
5 4 13 9 17 4 4 7 11 7 16 0 13 -14 8 -32 -12z"/>
<path d="M47 413 c-15 -14 -6 -19 29 -15 19 2 32 7 29 10 -9 9 -51 13 -58 5z"/>
<path d="M185 403 c15 -40 17 -76 5 -98 -11 -21 -6 -73 15 -142 3 -9 17 -8 55
2 29 8 54 15 56 17 11 11 -33 126 -57 148 -14 14 -30 40 -34 58 -5 23 -12 32
-27 32 -15 0 -18 -4 -13 -17z m77 -93 c19 -1 -11 -16 -47 -24 -24 -6 -28 -5
-17 5 6 7 12 29 12 49 l0 35 20 -32 c11 -18 25 -33 32 -33z m27 -64 c13 -55
14 -66 1 -46 -8 13 -10 13 -10 -1 0 -17 -49 -33 -62 -21 -4 4 -10 26 -14 50
-6 38 -5 42 11 35 14 -5 16 -3 10 7 -6 10 -3 12 13 8 12 -4 22 -2 22 3 0 5 4
9 9 9 5 0 14 -20 20 -44z"/>
<path d="M1547 413 c-15 -14 -6 -19 29 -15 19 2 32 7 29 10 -9 9 -51 13 -58 5z"/>
<path d="M1685 403 c15 -38 17 -83 5 -98 -10 -12 -10 -28 0 -78 6 -34 14 -65
16 -69 4 -6 101 16 110 24 11 11 -33 126 -57 148 -14 14 -30 40 -34 58 -5 23
-12 32 -27 32 -15 0 -18 -4 -13 -17z m77 -93 c19 -1 -11 -16 -47 -24 -24 -6
-28 -5 -17 5 6 7 12 29 12 49 l0 35 20 -32 c11 -18 25 -33 32 -33z m27 -64
c13 -55 14 -66 1 -46 -8 13 -10 12 -10 -2 0 -11 -8 -19 -20 -19 -11 -1 -25 -2
-32 -3 -7 -1 -15 10 -18 24 -5 20 -1 27 19 37 l26 12 -27 -5 c-21 -5 -28 -2
-28 10 0 10 5 13 17 9 12 -5 14 -3 8 7 -6 10 -3 12 13 8 12 -4 22 -2 22 3 0 5
4 9 9 9 5 0 14 -20 20 -44z"/>
<path d="M1485 401 c-50 -21 -72 -78 -49 -127 27 -57 93 -70 143 -28 24 20 31
34 31 63 0 36 -22 81 -40 81 -9 0 -3 -70 7 -80 3 -3 3 11 0 30 -6 32 -6 34 8
16 8 -11 15 -29 15 -41 0 -23 -29 -69 -30 -47 0 7 -5 10 -11 6 -8 -4 -7 -9 2
-15 21 -12 -36 -34 -61 -23 -19 9 -19 10 4 67 13 31 20 57 16 57 -9 0 -40 -74
-40 -95 0 -17 -16 -20 -24 -6 -9 14 30 98 51 110 10 6 13 11 7 11 -20 0 -44
-26 -58 -65 -15 -40 -15 -40 -15 -9 -1 40 33 84 65 84 13 0 24 5 24 10 0 12
-17 12 -45 1z"/>
<path d="M2953 378 c-29 -32 -35 -67 -17 -104 14 -30 64 -64 64 -44 0 6 -4 10
-9 10 -6 0 -6 12 0 30 6 16 9 35 6 42 -2 7 -8 -4 -12 -24 -4 -21 -11 -38 -16
-38 -19 0 -18 21 3 67 32 69 32 69 15 53 -9 -8 -23 -33 -31 -55 l-15 -40 0 33
c-1 24 7 42 28 63 16 16 24 29 17 29 -7 0 -22 -10 -33 -22z"/>
<path d="M66 353 c3 -20 7 -39 11 -43 3 -3 3 11 0 30 -6 32 -6 34 8 16 8 -11
15 -29 15 -41 0 -23 -29 -69 -30 -47 0 7 -5 10 -11 6 -8 -5 -8 -9 1 -14 14 -9
3 -18 -38 -30 l-27 -8 27 -1 c15 -1 40 10 57 25 24 20 31 34 31 63 0 36 -22
81 -40 81 -5 0 -6 -17 -4 -37z"/>
<path d="M1099 385 c-8 -13 18 -75 30 -75 14 0 34 -68 26 -88 -5 -14 -7 -14
-16 -2 -8 11 -12 12 -16 3 -11 -28 -33 -13 -33 23 0 24 4 33 12 28 8 -5 9 -2
5 10 -4 10 -7 23 -8 29 -1 29 -18 -32 -18 -69 -1 -43 21 -66 42 -45 5 5 16 7
24 4 20 -8 34 16 26 47 -9 37 -34 83 -41 75 -3 -3 -11 11 -17 32 -6 21 -13 34
-16 28z"/>
<path d="M2599 385 c-11 -10 13 -75 27 -75 16 0 38 -65 29 -88 -5 -14 -7 -14
-16 -2 -8 11 -12 12 -16 3 -11 -28 -33 -13 -33 23 0 24 4 33 12 28 8 -5 9 -2
5 10 -4 10 -7 23 -7 29 0 7 -4 6 -10 -3 -17 -26 -12 -107 7 -114 9 -4 21 -2
26 3 5 5 16 7 24 4 20 -8 34 16 26 47 -9 37 -34 83 -41 75 -3 -3 -11 10 -17
30 -5 20 -13 34 -16 30z"/>
<path d="M894 369 c-7 -12 12 -29 34 -29 10 0 10 5 2 20 -12 22 -25 26 -36 9z"/>
<path d="M2395 370 c-3 -5 -4 -14 -1 -18 3 -5 -6 -35 -19 -68 -19 -48 -29 -61
-54 -69 -17 -5 -31 -13 -31 -17 0 -10 3 -10 34 2 23 8 26 7 27 -13 1 -20 2
-19 13 6 16 36 65 76 93 77 15 0 28 11 38 30 10 19 11 30 5 30 -6 0 -8 5 -5
10 11 17 -11 11 -39 -11 -14 -11 -26 -27 -26 -36 0 -14 -37 -52 -52 -53 -4 0
2 23 14 50 11 28 27 50 35 50 11 0 11 4 3 20 -12 22 -25 26 -35 10z"/>
<path d="M41 352 c0 -12 -8 -39 -16 -59 -8 -20 -13 -38 -10 -41 9 -10 36 70
32 97 -3 23 -4 23 -6 3z"/>
<path d="M1055 354 c-11 -11 -13 -20 -6 -27 15 -15 41 0 41 23 0 24 -13 26
-35 4z"/>
<path d="M1541 352 c0 -12 -8 -39 -16 -59 -8 -20 -13 -38 -10 -41 9 -10 36 70
32 97 -3 23 -4 23 -6 3z"/>
<path d="M2555 354 c-11 -11 -13 -20 -6 -27 15 -15 41 0 41 23 0 24 -13 26
-35 4z"/>
<path d="M956 329 c-14 -11 -26 -27 -26 -36 0 -14 -37 -52 -52 -53 -4 0 2 21
13 46 11 26 17 49 15 52 -5 4 -18 -22 -45 -91 -7 -19 -20 -29 -41 -33 -16 -4
-30 -10 -30 -15 0 -11 3 -11 34 1 21 8 25 6 29 -13 3 -19 5 -18 11 8 9 32 63
75 96 75 11 0 26 13 35 30 10 19 11 30 5 30 -6 0 -8 5 -5 10 11 17 -11 11 -39
-11z"/>
<path d="M548 324 c-29 -15 -37 -34 -15 -34 17 0 57 29 57 41 0 12 -10 11 -42
-7z"/>
<path d="M2048 324 c-29 -15 -37 -34 -15 -34 17 0 57 29 57 41 0 12 -10 11
-42 -7z"/>
<path d="M477 304 c-3 -3 -22 -6 -41 -6 -20 0 -36 -4 -36 -8 0 -4 14 -7 30 -6
20 1 30 -3 30 -12 0 -7 4 -11 9 -7 5 3 12 1 16 -5 4 -6 -7 -10 -27 -10 -25 0
-29 3 -18 10 13 9 13 10 0 10 -9 0 -22 -6 -29 -12 -11 -11 -12 -10 -6 1 5 9 3
12 -6 9 -8 -3 -13 -11 -11 -17 1 -6 -5 -11 -13 -11 -19 0 -19 -10 1 -38 11
-16 25 -22 53 -22 96 0 136 28 110 77 -10 18 -19 23 -35 19 -13 -4 -26 -2 -29
4 -3 5 3 10 15 10 12 0 18 5 15 10 -7 11 -19 13 -28 4z m51 -76 c-3 -20 -11
-24 -62 -31 -48 -7 -62 -5 -74 7 -22 21 -14 26 59 35 35 5 68 9 72 10 5 0 7
-9 5 -21z"/>
<path d="M1977 304 c-3 -3 -22 -6 -41 -6 -20 0 -36 -3 -36 -8 0 -4 15 -7 33
-7 21 1 31 -4 29 -12 -1 -7 2 -10 7 -7 5 4 12 2 16 -4 4 -6 -7 -10 -27 -10
-25 0 -29 3 -18 10 26 17 -7 11 -42 -7 -18 -10 -35 -19 -37 -20 -2 -1 4 -14
13 -28 13 -20 25 -25 55 -25 96 0 136 28 110 77 -10 18 -19 23 -35 19 -13 -4
-26 -2 -29 4 -3 5 3 10 15 10 12 0 18 5 15 10 -7 11 -19 13 -28 4z m51 -76
c-3 -20 -11 -24 -62 -31 -48 -7 -62 -5 -74 7 -22 21 -14 26 59 35 35 5 68 9
72 10 5 0 7 -9 5 -21z"/>
<path d="M627 252 c-20 -22 -22 -63 -5 -80 16 -16 79 -15 101 2 19 14 24 56 6
56 -6 0 -8 -10 -5 -22 3 -13 3 -17 0 -10 -3 6 -16 12 -29 12 -31 0 -43 20 -22
35 9 7 14 15 10 18 -12 13 -40 7 -56 -11z m41 -65 c2 -10 -3 -17 -11 -17 -18
0 -39 24 -30 34 12 12 38 2 41 -17z"/>
<path d="M2127 252 c-20 -22 -22 -63 -5 -80 16 -16 79 -15 101 2 19 14 24 56
6 56 -6 0 -8 -10 -5 -22 3 -13 3 -17 0 -10 -3 6 -16 12 -29 12 -31 0 -43 20
-22 35 9 7 14 15 10 18 -12 13 -40 7 -56 -11z m43 -62 c0 -23 -22 -27 -39 -7
-13 16 -5 27 21 27 11 0 18 -7 18 -20z"/>
<path d="M1347 206 c-4 -9 -13 -13 -22 -10 -8 4 -27 -2 -43 -12 -15 -10 -34
-18 -42 -19 -8 0 -15 -6 -14 -12 1 -7 2 -20 3 -28 1 -19 30 -19 37 0 4 8 15
15 26 15 32 0 55 18 63 47 7 25 8 26 15 8 4 -12 3 -23 -4 -27 -7 -5 -5 -8 6
-8 19 0 31 14 20 24 -4 4 -7 13 -7 19 0 18 -32 20 -38 3z m-21 -41 c-22 -16
-46 -20 -46 -7 0 15 13 22 39 22 25 -1 25 -1 7 -15z"/>
<path d="M2847 206 c-4 -9 -13 -13 -22 -10 -8 4 -27 -2 -43 -12 -15 -10 -32
-17 -39 -16 -19 4 -24 -14 -12 -45 l11 -28 18 23 c10 12 27 22 38 22 24 0 48
22 58 53 7 21 7 21 14 2 4 -11 3 -23 -4 -27 -7 -5 -5 -8 5 -8 22 0 31 11 20
24 -5 6 -9 16 -10 21 0 17 -28 17 -34 1z m-21 -41 c-22 -16 -46 -20 -46 -7 0
15 13 22 39 22 25 -1 25 -1 7 -15z"/>
<path d="M63 172 c-7 -5 -18 -35 -24 -67 -10 -53 -9 -60 7 -72 20 -14 53 -17
71 -5 7 4 15 34 19 66 6 51 4 61 -11 72 -21 16 -44 18 -62 6z m65 -31 c3 -9
-6 -11 -29 -9 -18 2 -34 9 -36 18 -4 13 -3 13 6 0 9 -13 11 -13 11 2 0 14 5
16 22 9 12 -4 24 -13 26 -20z m-62 -19 c-2 -4 12 -6 31 -4 31 4 35 2 30 -13
-4 -9 -7 -27 -7 -40 0 -27 -30 -41 -57 -26 -15 7 -18 18 -15 50 2 23 8 41 14
41 5 0 7 -4 4 -8z"/>
<path d="M72 88 c-17 -17 -15 -38 3 -38 8 0 18 0 22 -1 13 -1 13 16 1 34 -11
14 -16 15 -26 5z"/>
<path d="M1551 158 c-4 -13 -11 -44 -15 -70 -7 -44 -5 -49 18 -59 42 -19 72
-5 80 38 10 66 7 92 -13 103 -32 17 -61 12 -70 -12z m77 -17 c3 -9 -6 -11 -29
-9 -18 2 -34 9 -36 18 -4 13 -3 13 6 0 9 -13 11 -13 11 2 0 14 5 16 22 9 12
-4 24 -13 26 -20z m-62 -19 c-2 -4 12 -6 31 -4 31 4 35 2 30 -13 -4 -9 -7 -27
-7 -40 0 -27 -30 -41 -57 -26 -15 7 -18 18 -15 50 2 23 8 41 14 41 5 0 7 -4 4
-8z"/>
<path d="M1572 88 c-17 -17 -15 -38 3 -38 8 0 18 0 22 -1 13 -1 13 16 1 34
-11 14 -16 15 -26 5z"/>
<path d="M950 147 c0 -15 4 -27 9 -27 5 0 11 -6 14 -12 2 -7 2 1 -1 17 -6 41
-22 57 -22 22z"/>
<path d="M990 160 c-1 -8 -3 -28 -4 -45 -1 -40 -31 -46 -39 -8 -4 15 -11 35
-16 43 -17 25 -26 1 -15 -39 9 -32 8 -42 -8 -61 -10 -12 -18 -30 -17 -39 0
-11 2 -12 6 -3 4 9 8 10 18 2 10 -8 15 -8 20 0 5 8 11 8 19 1 10 -8 16 -4 24
15 13 28 32 24 32 -7 0 -10 4 -19 9 -19 10 0 2 48 -10 56 -5 3 -2 18 6 34 8
16 15 39 15 52 -1 22 -1 22 -15 5 -13 -18 -14 -17 -18 5 -2 13 -5 16 -7 8z
m-7 -96 c7 -7 -14 -44 -26 -44 -5 0 -5 10 -2 23 5 17 4 18 -4 7 -11 -16 -27
-8 -16 9 7 12 38 15 48 5z"/>
<path d="M1461 153 c-1 -16 -7 -23 -22 -23 -21 0 -49 -51 -49 -90 0 -34 50
-23 73 17 15 27 17 40 9 75 -6 24 -10 33 -11 21z m9 -45 c0 -23 -39 -78 -55
-78 -13 0 -12 5 2 35 9 19 24 35 32 35 14 0 14 1 1 10 -13 8 -12 10 3 10 9 0
17 -6 17 -12z"/>
<path d="M2450 147 c0 -15 4 -27 9 -27 5 0 11 -6 14 -12 2 -7 2 1 -1 17 -6 41
-22 57 -22 22z"/>
<path d="M2490 160 c-1 -8 -3 -28 -4 -45 -1 -40 -31 -46 -39 -8 -4 15 -11 35
-16 43 -17 25 -26 1 -15 -39 9 -32 8 -42 -8 -61 -10 -12 -18 -30 -17 -39 0
-11 2 -12 6 -3 4 9 8 10 18 2 10 -8 15 -8 20 0 5 8 11 8 19 1 10 -8 16 -4 24
15 13 28 32 24 32 -7 0 -10 4 -19 9 -19 10 0 2 48 -10 56 -5 3 -2 18 6 34 8
16 15 39 15 52 -1 22 -1 22 -15 5 -13 -18 -14 -17 -18 5 -2 13 -5 16 -7 8z
m-7 -96 c7 -7 -14 -44 -26 -44 -5 0 -6 10 -3 23 3 12 3 16 0 9 -3 -6 -10 -10
-15 -6 -5 3 -7 10 -4 15 7 10 38 12 48 3z"/>
<path d="M2961 148 c-1 -11 -9 -18 -21 -18 -23 0 -50 -46 -50 -85 0 -23 4 -26
27 -23 41 5 68 57 55 106 -5 20 -10 29 -11 20z m9 -40 c0 -23 -39 -78 -55 -78
-13 0 -12 5 2 35 9 19 24 35 32 35 14 0 14 1 1 10 -13 8 -12 10 3 10 9 0 17
-6 17 -12z"/>
<path d="M1134 134 c3 -8 2 -12 -4 -9 -5 3 -16 -5 -25 -19 -20 -30 -17 -97 5
-104 12 -4 13 -2 3 9 -17 17 -16 61 1 85 12 16 15 16 19 4 12 -35 15 -62 7
-54 -4 5 -10 18 -12 29 -5 19 -5 19 -13 1 -14 -32 14 -69 53 -71 38 -2 41 7 7
29 -19 12 -25 25 -25 51 0 18 5 37 11 41 8 4 7 9 -2 15 -21 13 -32 11 -25 -7z"/>
<path d="M2634 134 c3 -8 2 -12 -4 -9 -5 3 -16 -5 -25 -19 -20 -30 -17 -97 5
-104 12 -4 13 -2 3 9 -17 17 -16 61 1 85 12 16 15 16 19 4 12 -35 15 -62 7
-54 -4 5 -10 18 -12 29 -5 19 -5 19 -13 1 -14 -32 14 -69 53 -71 38 -2 41 7 7
29 -19 12 -25 25 -25 51 0 18 5 37 11 41 8 4 7 9 -2 15 -21 13 -32 11 -25 -7z"/>
<path d="M479 101 c-29 -29 -40 -83 -20 -95 5 -3 9 11 9 31 0 28 7 43 28 61
52 45 130 4 122 -65 -4 -37 7 -45 15 -11 8 28 -16 84 -41 97 -38 20 -82 13
-113 -18z"/>
<path d="M1979 101 c-29 -29 -40 -83 -20 -95 5 -3 9 10 8 30 -1 29 5 42 28 61
53 46 131 5 123 -64 -4 -37 7 -45 15 -11 8 28 -16 84 -41 97 -38 20 -82 13
-113 -18z"/>
<path d="M311 107 c-1 -14 -6 -17 -23 -12 -18 5 -19 4 -8 -4 12 -8 12 -11 -4
-17 -11 -4 -22 -1 -28 7 -8 11 -9 11 -5 -3 3 -9 1 -19 -6 -22 -9 -3 -9 -5 0
-5 6 -1 9 -10 5 -23 -5 -21 -6 -21 -13 -2 -7 17 -8 17 -8 -4 -1 -17 4 -23 17
-20 11 2 16 11 14 23 -4 20 -3 20 20 0 15 -14 36 -21 62 -20 33 0 40 4 43 24
4 28 -21 71 -41 71 -8 0 -17 6 -19 13 -3 7 -6 4 -6 -6z m47 -42 c8 -17 8 -26
1 -31 -8 -4 -8 -8 -1 -13 6 -4 -6 -6 -27 -6 -37 0 -38 0 -30 27 4 16 5 28 1
28 -11 0 22 20 34 20 6 0 16 -11 22 -25z"/>
<path d="M1811 108 c-1 -19 -21 -26 -21 -7 0 5 -5 7 -11 3 -8 -4 -7 -9 2 -15
11 -6 9 -9 -5 -15 -11 -4 -22 -1 -28 7 -8 11 -9 11 -5 -3 3 -9 1 -19 -6 -22
-9 -3 -9 -5 0 -5 6 -1 9 -10 5 -23 -5 -21 -6 -21 -13 -2 -7 17 -8 17 -8 -4 -1
-17 4 -23 17 -20 11 2 16 11 14 23 -3 16 -1 18 9 7 20 -19 39 -14 39 11 1 20
2 20 11 4 13 -22 29 -13 29 16 1 21 1 21 15 3 17 -22 4 -46 -24 -46 -9 0 -22
-4 -28 -8 -8 -5 5 -8 29 -7 35 1 42 4 45 25 4 27 -21 70 -41 70 -8 0 -17 6
-19 13 -3 7 -6 5 -6 -5z"/>
<path d="M705 100 c-3 -5 1 -10 11 -10 12 0 14 -3 6 -13 -7 -8 -8 -24 -4 -41
7 -25 12 -28 55 -30 l47 -2 0 38 c0 32 -4 40 -25 48 -14 5 -32 7 -40 4 -8 -4
-15 -1 -15 5 0 14 -27 15 -35 1z m95 -34 c0 -15 -35 -27 -56 -19 -8 3 -14 9
-14 15 0 5 5 6 10 3 6 -3 10 -1 10 4 0 6 11 11 25 11 15 0 25 -6 25 -14z"/>
<path d="M2210 100 c-13 -8 -12 -10 4 -10 14 0 16 -3 8 -13 -7 -8 -8 -24 -4
-41 7 -25 12 -28 55 -30 l47 -2 0 38 c0 32 -4 40 -25 48 -14 5 -32 7 -40 4 -8
-4 -15 -1 -15 5 0 13 -10 14 -30 1z m90 -34 c0 -15 -35 -27 -56 -19 -8 3 -14
9 -14 15 0 5 5 6 10 3 6 -3 10 -1 10 4 0 6 11 11 25 11 15 0 25 -6 25 -14z"/>
<path d="M494 85 c-4 -8 -1 -21 5 -29 8 -10 8 -16 -4 -26 -8 -7 -15 -18 -15
-24 0 -6 7 -3 14 7 10 13 21 16 40 11 22 -5 26 -3 26 15 0 12 6 21 15 21 13 0
13 -3 3 -20 -10 -16 -10 -22 1 -32 12 -11 13 -10 8 4 -3 10 -2 20 3 23 16 10
11 35 -6 35 -9 0 -22 8 -29 17 -11 15 -13 15 -24 -5 -15 -28 -35 -29 -26 -2 7
23 -3 27 -11 5z"/>
<path d="M1994 85 c-4 -8 -1 -21 5 -29 8 -10 8 -16 -4 -26 -8 -7 -15 -18 -15
-24 0 -6 7 -3 14 7 10 13 21 16 40 11 22 -5 26 -3 26 15 0 12 6 21 15 21 13 0
13 -3 3 -20 -10 -16 -10 -22 1 -32 12 -11 13 -10 8 4 -3 10 -2 20 3 23 16 10
11 35 -6 35 -9 0 -22 8 -29 17 -11 15 -13 15 -24 -5 -15 -28 -35 -29 -26 -2 7
23 -3 27 -11 5z"/>
<path d="M1320 75 c-9 -11 -10 -19 -3 -26 7 -7 14 -5 23 6 9 11 10 19 3 26 -7
7 -14 5 -23 -6z"/>
<path d="M2820 75 c-9 -11 -10 -19 -3 -26 7 -7 14 -5 23 6 9 11 10 19 3 26 -7
7 -14 5 -23 -6z"/>
</g>
</svg>
